<svg width="577" height="81" viewBox="0 0 577 81" fill="none" xmlns="http://www.w3.org/2000/svg">
<g filter="url(#filter0_f_2_259)">
<path d="M162.503 16.2709C162.375 16.6549 162.311 16.7927 162.311 17.2407C162.887 17.2407 162.503 18.1808 162.503 18.4368C162.503 18.6928 162.439 19.1808 162.503 19.4368C162.631 19.8848 162.056 20.2487 162.12 20.6967C162.184 21.1447 162.247 21.6247 162.311 22.1367C162.375 22.9687 162.439 23.8327 162.503 24.7287C162.631 25.5607 162.695 26.4247 162.695 27.3207V27.6087C162.823 28.1847 162.887 28.7607 162.887 29.3367C162.887 29.9127 162.887 30.4887 162.887 31.0647C162.887 31.4487 162.887 31.8327 162.887 32.2167C162.887 32.6007 162.92 32.9527 162.984 33.2727C163.112 34.1047 163.176 34.9687 163.176 35.8647C163.176 36.6967 163.143 37.5607 163.079 38.4567C163.079 39.3527 163.079 40.2808 163.079 41.2408C163.079 42.1368 163.015 43.0328 162.887 43.9288V61.4008C162.887 61.6568 162.887 61.9448 162.887 62.2648C162.887 62.5848 162.823 62.9048 162.695 63.2248L162.6 63.8968C162.6 64.3448 162.6 64.8248 162.6 65.3368C162.6 65.8488 162.631 66.3608 162.695 66.8728C162.759 67.5128 162.823 68.1527 162.887 68.7927C162.951 69.4327 163.048 70.0727 163.176 70.7127C163.304 71.3527 163.528 71.8007 163.848 72.0567C164.04 72.1847 164.199 72.4087 164.327 72.7287L164.615 73.3047C164.807 73.7527 165.063 74.0407 165.383 74.1687L167.303 75.0327C167.943 75.3527 168.519 75.4167 169.031 75.2247C169.415 75.2247 169.703 75.1927 169.895 75.1287C170.791 74.9367 171.72 74.8087 172.68 74.7447C173.64 74.6167 174.599 74.5207 175.559 74.4567C175.879 74.4567 176.2 74.4567 176.52 74.4567C176.904 74.3927 177.224 74.3287 177.48 74.2647C177.992 74.1367 178.471 74.0727 178.919 74.0727C179.431 74.0727 179.944 74.0727 180.456 74.0727C180.712 74.0727 180.967 74.1047 181.223 74.1687C181.479 74.1687 181.736 74.1687 181.992 74.1687C182.568 74.1047 183.143 74.1047 183.719 74.1687C184.295 74.1687 184.871 74.1367 185.447 74.0727L186.408 74.1687C186.92 74.2327 187.4 74.2967 187.848 74.3607C188.296 74.3607 188.743 74.3607 189.191 74.3607C189.511 74.3607 189.832 74.3927 190.152 74.4567C190.472 74.4567 190.76 74.4887 191.016 74.5527C191.976 74.6167 192.936 74.8087 193.896 75.1287L194.855 75.2247C195.559 75.0967 196.199 74.9687 196.775 74.8407C197.415 74.7127 197.991 74.4247 198.503 73.9767C198.759 73.8487 198.887 73.7847 198.887 73.7847C199.079 73.6567 199.24 73.4967 199.368 73.3047C199.496 73.1127 199.592 72.9207 199.656 72.7287C199.72 72.5367 199.784 72.3447 199.848 72.1527C200.168 71.4487 200.232 70.8087 200.04 70.2327C199.976 69.9767 199.912 69.7527 199.848 69.5607C199.848 69.3047 199.815 69.0487 199.751 68.7927C199.687 68.4727 199.592 68.2167 199.464 68.0247C199.399 67.7687 199.304 67.5128 199.176 67.2568C198.984 66.8088 198.663 66.4888 198.215 66.2968C197.191 65.5928 196.04 65.2728 194.76 65.3368H194.279C193.703 65.3368 193.127 65.3368 192.551 65.3368C192.039 65.3368 191.528 65.3048 191.016 65.2408C190.312 65.1768 189.575 65.1448 188.807 65.1448C188.103 65.0808 187.399 65.0488 186.695 65.0488C186.247 65.0488 185.8 65.0488 185.352 65.0488C184.968 64.9848 184.52 64.9208 184.008 64.8568H182.952C182.312 64.9208 181.64 64.9848 180.936 65.0488C180.296 65.0488 179.623 65.0488 178.919 65.0488C178.215 65.0488 177.511 65.0488 176.807 65.0488C176.167 65.0488 175.496 65.1128 174.792 65.2408C174.28 65.3688 173.736 65.3688 173.16 65.2408C172.776 65.2408 172.583 65.0808 172.583 64.7608C172.519 64.2488 172.424 63.7048 172.296 63.1288C172.232 62.5528 172.199 61.9768 172.199 61.4008V35.8647C172.199 35.5447 172.199 35.2247 172.199 34.9047C172.199 34.5207 172.168 34.1687 172.104 33.8487C172.04 33.0807 171.975 32.3127 171.911 31.5447C171.847 30.7767 171.783 30.0087 171.719 29.2407V29.1447C171.655 28.6967 171.624 28.2487 171.624 27.8007C171.624 27.3527 171.56 26.9047 171.432 26.4567V25.4967C171.368 24.7927 171.304 24.1207 171.24 23.4807C171.176 22.7767 171.08 22.1047 170.952 21.4647C170.888 20.8887 170.791 20.3127 170.663 19.7367C170.599 19.0967 170.568 18.4887 170.568 17.9127C170.568 17.6567 170.568 17.4327 170.568 17.2407C170.632 16.9847 170.632 16.7287 170.568 16.4727C170.568 16.2167 170.471 16.0247 170.279 15.8967C170.151 15.7047 170.023 15.5127 169.895 15.3207C169.703 15.1287 169.512 14.9367 169.32 14.7447C169.192 14.4887 168.968 14.2967 168.648 14.1687C168.328 14.0407 168.072 13.8487 167.88 13.5927C167.752 13.4647 167.592 13.4007 167.4 13.4007C166.952 13.5287 166.631 13.5287 166.439 13.4007C166.183 13.2087 165.896 13.2407 165.576 13.4967C165.32 13.6247 165.127 13.6567 164.999 13.5927C164.359 13.5287 163.848 13.7527 163.464 14.2647C163.4 14.3287 163.304 14.3927 163.176 14.4567C163.048 14.5207 162.92 14.6167 162.792 14.7447C162.536 15.0007 162.375 15.1927 162.311 15.3207C162.183 15.7047 162.631 15.8229 162.503 16.2709ZM162.503 16.2709C162.467 15.2002 162.12 7.50945 162.12 6.43683C162.12 5.65631 164.842 3.20804 165.652 4.25729C165.951 4.64347 168.154 4.68139 168.208 5.38051M557.187 35.36C556.349 35.0968 556.026 36.0985 555.148 36.2213C553.58 36.4407 554.676 37.2421 554.804 37.5817C555.207 38.654 558.765 37.3606 558.383 36.537M549.224 37.9368C549.466 40.0504 548.41 43.6368 551.001 45.1368C554.11 46.9368 558.272 46.9368 560.399 46.9368C565.31 46.9368 571.481 45.9585 573.208 40.9368M6.38082 29.933C6.38082 31.1191 6.44264 32.261 6.54084 33.3793M6.54084 33.3793C6.6792 34.955 6.88978 36.4841 7.10138 38.0241M6.54084 33.3793C6.50217 32.2331 6.52777 31.1051 6.74942 30.1076C6.78697 29.9387 6.86579 29.7265 6.95666 29.506M6.54084 33.3793C6.58789 34.7736 6.73002 36.1949 6.73002 37.441C6.73002 40.3617 7.07923 43.3348 7.07923 46.1712C7.07923 49.2688 8.12686 52.2215 8.12686 55.2506C8.12686 57.797 9.1421 60.5725 9.50429 63.1078C9.64329 64.0808 9.67346 65.6737 10.2618 66.4728M7.10138 38.0241C7.33462 39.7216 7.56911 41.4324 7.70956 43.2338M7.10138 38.0241C7.13967 39.2487 7.232 40.4638 7.44784 41.6509C7.54079 42.1621 7.62647 42.6919 7.70956 43.2338M7.10138 38.0241C7.06266 36.7856 7.07923 35.5373 7.07923 34.2981V30.3598C7.07923 30.0204 7.0316 29.7321 6.95666 29.506M7.70956 43.2338C7.73572 43.5694 7.75863 43.9082 7.77765 44.2506C7.80817 44.8 7.96637 45.4084 8.12449 46.0117M7.70956 43.2338C7.84783 44.1357 7.97894 45.0714 8.12449 46.0117M8.12449 46.0117C8.30032 46.6825 8.47606 47.3471 8.47606 47.9173C8.47606 47.9687 8.47588 48.0201 8.47556 48.0715M8.12449 46.0117C8.23097 46.6996 8.34517 47.39 8.47556 48.0715M8.47556 48.0715C8.46748 49.3528 8.37005 50.6283 8.74767 51.8555C9.43064 54.0752 9.17448 56.9196 9.17448 59.2665C9.17448 61.4276 10.2221 63.6238 10.2221 65.9015C10.2221 66.021 10.2341 66.2262 10.2618 66.4728M8.47556 48.0715C8.78584 49.6934 9.18776 51.2646 9.79529 52.6316C10.5207 54.2637 10.1556 56.642 10.7459 58.4129C11.3556 60.242 11.2649 62.4221 11.6965 64.3106C11.8397 64.9371 12.363 67.4134 11.8219 68.3447M10.2618 66.4728C10.3651 67.3918 10.6872 68.8865 11.4249 68.6757C11.5962 68.6268 11.7259 68.5101 11.8219 68.3447M10.2618 66.4728C10.2742 66.4897 10.2868 66.5062 10.2997 66.5223C10.5263 66.8055 11.4195 67.9297 11.8219 68.3447M11.8219 68.3447C11.9997 68.528 12.0816 68.5729 11.9681 68.3459M6.95666 29.506C6.85945 29.2128 6.71629 29.0245 6.5715 28.9651M6.95666 29.506C7.33063 28.5987 7.9086 27.5516 6.65242 28.8078C6.62624 28.834 6.59911 28.8892 6.5715 28.9651M6.5715 28.9651C6.30434 28.8557 6.03161 29.1856 6.03161 30.1076C6.03161 32.0424 6.32174 29.6523 6.5715 28.9651ZM38.1587 23.2981C38.1587 25.7119 38.0208 28.2208 37.9183 30.7328M37.9183 30.7328C37.8577 32.2175 37.8095 33.7033 37.8095 35.1711C37.8095 37.6276 37.4583 39.9156 37.1625 42.2298M37.9183 30.7328C37.609 32.0263 37.1111 33.2112 37.1111 34.6473V40.4093C37.1111 41.0171 37.1299 41.6238 37.1625 42.2298M37.9183 30.7328C38.0576 30.15 38.1587 29.5452 38.1587 28.8854M37.1625 42.2298C36.9475 43.9122 36.7619 45.6085 36.7619 47.3934C36.7619 48.3882 37.0603 49.2726 37.1111 50.1871C37.1547 50.9711 36.7719 52.6939 37.2857 53.3106C37.6361 53.731 37.6595 55.3612 37.7901 55.949C37.9758 56.7846 37.8864 57.7807 38.2363 58.5681C39.583 61.5982 38.0356 66.446 40.1764 69.1219C40.2084 69.1619 40.2358 69.2063 40.2594 69.2544M37.1625 42.2298C37.3732 46.1435 38.1587 50.0236 38.1587 53.9508C38.1587 56.3669 38.8571 58.7379 38.8571 61.1483C38.8571 63.7027 39.1411 66.715 40.1764 69.0443C40.207 69.1131 40.2344 69.1833 40.2594 69.2544M40.2594 69.2544C40.3115 69.3609 40.3448 69.4854 40.367 69.6209M40.2594 69.2544C40.3013 69.374 40.3362 69.4965 40.367 69.6209M40.367 69.6209C40.4637 70.2087 40.3535 71.0021 40.6808 71.4112C41.1045 71.9408 41.4823 72.7323 41.6702 73.39C41.718 73.5574 41.6826 72.4853 41.127 71.8186C40.5916 71.1762 40.5515 70.3647 40.367 69.6209ZM58.208 19.9367C58.208 22.3069 59.954 23.8055 59.954 26.2225C59.954 27.8983 60.3281 31.5053 61.1763 33.032C61.941 34.4085 60.3622 38.5618 61.5255 39.4924C62.0023 39.8739 61.7339 42.027 61.7001 42.6353C61.6227 44.028 61.3509 45.4394 61.3509 46.9034C61.3509 51.6541 61.7001 56.2866 61.7001 60.9687V68.1274C61.7001 69.2204 62.6925 69.9821 62.7477 70.9211C62.7927 71.6855 62.8039 73.5343 62.3985 72.3179M116.73 16.6631C116.73 24.9957 114.984 33.3008 114.984 41.6121C114.984 46.4378 115.024 51.0297 115.702 55.7744C116.315 60.0659 117.429 64.194 117.429 68.6175C117.429 70.4821 118.363 74.2824 120.572 74.2824C124.549 74.2824 128.348 72.8856 132.27 72.8856H143.096C145.663 72.8856 147.91 73.584 150.604 73.584M164.458 45.2323C164.458 50.2975 165.208 55.2272 165.208 60.1711C165.208 62.4516 165.464 64.7283 165.715 66.9627L165.722 67.0228C165.829 67.9788 166.893 72.8896 166.458 70.0779M221.642 21.6447C220.462 21.7923 220.33 23.0785 219.638 23.5774M219.638 23.5774C219.618 23.5913 219.598 23.6046 219.578 23.6172C219.209 23.8477 218.967 24.1365 218.661 24.4429C218.629 24.4744 218.601 24.5108 218.576 24.5508M219.638 23.5774C219.483 23.7675 219.282 24.0062 219.053 24.2754M219.638 23.5774C220.036 23.088 220.137 22.921 219.67 23.3879L219.625 23.4326C219.262 23.7962 218.854 24.2036 218.422 24.6455M218.576 24.5508C218.483 24.6968 218.426 24.891 218.366 25.072M218.576 24.5508C218.523 24.5827 218.472 24.6143 218.422 24.6455M218.576 24.5508C218.725 24.4606 218.885 24.3683 219.053 24.2754M218.366 25.072C218.274 25.3461 218.173 25.5898 217.927 25.5898C217.922 25.5898 217.917 25.5897 217.912 25.5897M218.366 25.072C218.218 25.2414 218.066 25.415 217.912 25.5897M218.366 25.072C218.611 24.7905 218.844 24.5203 219.053 24.2754M217.912 25.5897C217.741 25.5883 217.634 25.5633 217.581 25.5189M217.912 25.5897C217.08 26.5324 216.192 27.5078 215.656 28.044C214.954 28.7464 214.581 29.7297 214.148 30.6429M217.581 25.5189C217.412 25.3772 217.796 25.0384 218.422 24.6455M217.581 25.5189C217.868 25.2157 218.15 24.9238 218.422 24.6455M217.581 25.5189C215.205 28.0295 212.486 31.3141 212.147 34.0304C211.912 35.9113 210.495 37.6238 210.495 39.8104C210.495 41.6232 209.257 43.5953 209.257 45.384V58.1825C209.257 61.5832 214.236 66.6775 216.596 68.8021C219.5 71.4157 223.432 73.2518 227.422 73.2518M219.053 24.2754C220.114 23.6877 221.475 23.0785 222.239 22.8603C223.869 22.3946 222.358 22.9901 221.436 23.5025C220.299 24.1342 219.612 24.4129 218.661 25.2687C217.703 26.1303 216.789 27.0018 215.954 27.9293C215.41 28.5345 215.124 29.7494 214.417 30.3147C214.344 30.3736 214.249 30.4949 214.148 30.6429M214.148 30.6429C213.735 31.2514 213.235 32.3099 213.798 31.3239C213.923 31.1054 214.038 30.8765 214.148 30.6429ZM292.208 47.9368C288.472 47.9368 283.04 49.8182 281.075 52.1054C280.602 52.6563 279.989 53.7092 281.488 53.9862C282.127 54.1044 282.952 53.9751 283.614 54.0003C284.339 54.0279 284.866 54.7491 285.372 55.0109C285.994 55.3328 287.13 56.3669 287.13 56.9057C287.13 57.5178 287.316 58.9066 286.544 59.3059C285.966 59.6048 285.638 60.8275 285.09 61.2709C284.189 61.9993 283.775 63.0577 282.746 63.7974C281.182 64.9215 279.267 66.6326 276.583 66.6326C274.027 66.6326 270.807 67.5566 268.684 66.1835C268 65.741 267.208 64.9932 267.208 64.3588C267.208 63.7734 267.447 62.0287 267.208 62.3376M281.281 53.9368C281.384 54.4642 283.691 54.6417 283.996 55.3217C284.36 56.1357 285.112 57.0322 285.19 57.9253C285.374 60.038 284.136 61.0902 281.867 62.5371C279.197 64.2399 277.413 65.9025 273.267 65.9025C271.672 65.9025 269.805 66.1802 268.859 65.1546C268.404 64.6614 267.778 63.0929 267.208 62.911M314.138 53.4845C314.138 54.5676 312.801 56.1641 312.002 57.0827C310.997 58.239 310.518 59.7833 309.177 60.736C308.214 61.4199 306.776 63.4384 306.394 64.2929C305.805 65.6103 305.208 66.6786 305.208 68.1254C305.208 69.2348 305.228 69.0022 306.567 68.6217C307.587 68.332 308.402 68.0804 309.285 67.6291C310.705 66.903 312.427 65.4273 313.275 64.4032C315.378 61.8644 318.504 59.1034 321.687 57.0689C323.168 56.1223 324.269 54.9411 325.699 53.9256C326.073 53.6599 326.437 53.3307 326.802 52.9806M326.802 52.9806C327.642 52.1748 328.488 51.2588 329.473 50.7548C330.103 50.4327 330.526 49.6929 330.919 49.2659C331.718 48.3976 330.663 49.4843 330.142 49.8174C329.14 50.4578 327.341 51.8026 326.971 52.6297C326.919 52.7474 326.862 52.8644 326.802 52.9806ZM326.802 52.9806C325.482 55.5286 322.427 57.7461 321.536 60.3087C320.304 63.8533 325.38 64.6513 329.668 64.6513M403.54 48.5662C398.693 48.5662 394.845 49.1169 394.845 52.9681C394.845 54.1745 394.936 54.4843 396.352 55.2881C397.114 55.7207 398.659 55.5969 399.542 56.0428C400.906 56.7309 403.307 58.766 401.935 59.9561C401.112 60.6698 401.005 61.7103 400.118 62.332C399.125 63.028 398.139 63.6461 397.061 64.2886C395.294 65.3415 392.407 66.722 390.06 66.8043C387.116 66.9075 385.118 67.3206 382.793 65.8539C380.689 64.5267 381.286 62.8175 381.286 61.0183M436.664 40.9368C436.664 43.9127 434.182 46.9715 432.208 49.6916C431.107 51.2085 429.452 52.8105 428.701 54.4203C428.542 54.761 427.989 55.068 427.583 55.4074M427.583 55.4074C427.357 55.596 427.177 55.7946 427.134 56.0146C427.053 56.437 425.914 57.8004 425.458 58.1493C424.011 59.2574 422.887 60.7663 421.355 61.9728C420.208 62.8759 418.002 64.3453 418.002 65.499C418.002 65.7725 417.605 67.344 417.605 66.8366C417.605 65.8939 417.208 65.0944 417.208 64.1615C417.208 62.5354 419.355 61.1378 420.583 59.7841C422.291 57.9012 424.954 56.6669 427.583 55.4074ZM427.583 55.4074C428.87 54.791 430.149 54.1685 431.304 53.4611C432.344 52.8238 437.608 51.5939 438.958 52.4208C440.017 53.0693 436.618 56.0161 436.068 56.6226C435.101 57.6891 432.525 59.4457 432.296 60.6352C432.172 61.2824 431.502 61.6728 431.502 62.4592C431.502 63.3254 431.965 63.8767 432.318 64.6344C432.945 65.9781 436.751 65.5636 438.649 65.499C439.503 65.47 441.297 65.1259 441.914 64.8235C442.638 64.4688 443.266 63.938 444.208 63.5535M463.408 53.9368C463.408 55.6231 459.96 58.0317 458.297 59.2823C456.415 60.6966 456.321 62.8652 455.097 64.5209C454.542 65.2719 454.208 66.1992 454.208 67.0467C454.208 68.2396 456.43 67.8886 457.897 67.8886C460.704 67.8886 464.208 66.7669 464.208 65.002M462.004 66.9329C461.745 66.9329 459.706 66.9813 460.296 66.734C460.502 66.6477 460.745 66.4588 461.02 66.2865M461.02 66.2865C461.36 66.0734 461.748 65.8857 462.173 65.9493C462.358 65.977 461.788 66.1258 461.02 66.2865ZM461.02 66.2865C460 66.4998 458.631 66.734 458.208 66.734M458.208 56.9368C459.567 56.0129 460.408 54.0801 462.137 53.4268C462.948 53.1204 463.713 52.5971 464.102 52.0677C464.27 51.8396 464.588 51.6495 464.939 51.4646M464.939 51.4646C465.292 51.2786 465.677 51.0977 465.975 50.8882M464.939 51.4646C464.922 51.539 467.229 51.957 467.726 51.6562C467.842 51.5861 465.839 51.0061 465.975 50.8882M464.939 51.4646C464.973 51.3156 465.742 50.6499 466.066 50.405C466.728 49.9054 467.514 49.5891 468.424 49.2834C470.547 48.5706 467.789 49.1476 466.852 49.3362M465.975 50.8882C466.085 50.8108 466.183 50.7295 466.263 50.6426C466.33 50.5693 466.388 50.5071 466.436 50.4548M465.975 50.8882C466.143 50.743 466.31 50.5818 466.436 50.4548M466.436 50.4548C466.773 50.0929 466.679 50.211 466.436 50.4548ZM440.208 36.9368C440.208 37.5539 439.59 39.0032 438.797 39.3892C437.678 39.9335 437.942 41.2769 436.781 41.8417C436.73 41.8661 436.676 41.899 436.622 41.9352M436.622 41.9352C436.285 42.1563 435.914 42.4966 436.198 41.7191C436.395 41.18 436.758 40.6573 436.982 40.1114C437.077 39.88 438.126 38.2472 438.169 38.3129C438.48 38.7858 437.982 39.1612 437.811 39.5255C437.416 40.366 436.99 41.1545 436.622 41.9352ZM436.622 41.9352C436.615 41.9494 436.608 41.9637 436.601 41.978C436.218 42.7945 435.299 43.5664 434.988 44.4169C434.615 45.4403 433.702 46.3439 433.331 47.3599C433.004 48.2533 431.74 49.1944 431.74 50.0576C431.74 51.561 429.583 53.5099 428.425 54.84C427.021 56.4528 425.467 57.9208 424.169 59.4997C422.918 61.0216 421.638 62.8271 419.957 64.105C419.066 64.7824 418.489 65.6696 417.538 66.3122C416.909 66.7368 415.828 68.7244 415.208 67.5929M415.208 67.9367C415.208 65.8114 418.727 62.7996 421.208 61.9368M482.443 65.9631C482.443 66.7323 480.901 66.9368 479.883 66.9368C478.462 66.9368 479.678 65.3774 479.992 64.9895C481.152 63.5556 482.164 62.2134 483.231 60.7297C483.752 60.006 484.377 59.3261 485.056 58.6683M485.056 58.6683C485.612 58.1288 486.206 57.6042 486.808 57.0824M485.056 58.6683C484.897 58.933 484.807 59.2056 484.807 59.4856C484.807 60.6593 486.022 58.1186 487.539 56.6401M485.056 58.6683C485.395 58.1016 486.048 57.5713 486.808 57.0824M486.808 57.0824C488.134 55.934 489.505 54.799 490.629 53.5491C491.915 52.1183 491.83 53.5828 490.913 54.0359C490.016 54.4796 489.77 55.3986 488.747 55.7939C488.335 55.9531 487.927 56.2618 487.539 56.6401M486.808 57.0824C487.044 56.931 487.289 56.7835 487.539 56.6401M487.539 56.6401C488.403 56.1439 489.314 55.6973 490.016 55.3071C491.857 54.2835 494.23 53.5491 496.823 53.5491C500.399 53.5491 496.325 61.2181 496.232 62.3119C496.124 63.5819 495.773 66.6933 498.596 66.6933H498.612C499.749 66.6934 500.959 66.6934 501.747 66.0848C502.303 65.656 503.318 64.7973 503.914 64.5026C504.394 64.2653 505.262 63.2055 505.205 63.2856C504.745 63.9357 503.995 64.6918 503.695 65.341C503.263 66.2748 500.189 66.8485 498.087 66.8158M498.087 66.8158C497.497 66.8066 496.983 66.7495 496.626 66.6392C494.797 66.0743 495.444 61.6572 495.444 62.9205C495.444 63.9899 496.145 66.2667 498.087 66.8158ZM498.087 66.8158C498.362 66.8936 498.663 66.9368 498.99 66.9368M524.66 53.9368C517.751 53.9368 516.386 57.8837 515.14 61.2793C514.997 61.6694 514.804 62.2568 514.694 62.8979M514.694 62.8979C514.43 64.4297 514.636 66.2684 517.106 66.4553C518.528 66.5629 519.609 66.9368 521.281 66.9368H526.45C527.858 66.9368 529.359 66.4105 530.625 66.0273C531.666 65.7119 533.511 65.4147 534.203 64.8905C534.342 64.7851 531.383 65.2516 530.625 65.2516C528.667 65.2516 526.92 65.6704 525.058 65.733C521.849 65.841 516.42 66.9329 515.493 64.409C515.298 63.8782 514.958 63.3967 514.694 62.8979ZM514.694 62.8979C514.484 62.5009 514.322 62.0929 514.322 61.6405C514.322 61 514.08 60.6753 514.3 60.0756C514.497 59.5395 515.118 59.0444 515.118 58.5108M472.208 40.9368C471.499 40.8481 470.829 40.2472 470.208 39.9368M360.209 57.9368C360.209 58.8653 359.862 59.749 359.534 60.6497C359.442 60.9045 359.371 61.3422 359.128 61.5618C358.954 61.7187 359.228 62.0798 358.961 62.1868C358.645 62.3132 358.803 63.2519 358.702 63.4784C358.324 64.3315 358.212 65.2153 358.212 66.1034C358.212 66.5719 358.086 66.9368 359.211 66.9368C359.701 66.9368 361.208 66.798 361.208 66.5201M345.196 64.4652C345.176 64.3765 344.704 64.898 344.662 64.9449L344.661 64.946C344.537 65.0827 344.571 65.3197 344.657 65.5048M344.657 65.5048C344.688 65.5726 344.726 65.6334 344.766 65.6798C344.95 65.8928 345.231 65.9599 345.645 65.93C346.473 65.8701 345.419 65.6927 345.132 65.6404C344.935 65.6044 344.779 65.559 344.657 65.5048ZM344.657 65.5048C344.189 65.2969 344.208 64.9586 344.208 64.5158C344.208 64.3297 344.44 64.0244 344.666 63.886C344.99 63.6867 345.152 63.3793 345.485 63.1747C345.816 62.9713 346.027 62.7385 346.331 62.5308C346.552 62.38 346.734 62.1 346.967 61.9854C347.201 61.8701 347.354 61.5885 347.484 61.4287C347.667 61.2034 347.858 60.9997 348.115 60.7961C348.347 60.613 348.465 60.4194 348.737 60.2422C349.076 60.0218 349.226 59.7157 349.524 59.4803C349.904 59.1802 350.186 58.8244 350.485 58.4934C350.647 58.3141 351.208 58.1331 351.208 57.9368M347.816 60.5288C347.835 60.423 348.036 60.1672 348.134 60.0889C348.26 59.9888 348.373 59.7195 348.489 59.5895C348.811 59.2311 349.305 58.9024 349.705 58.5758C350.466 57.9535 351.133 57.2612 351.739 56.573M351.739 56.573C351.764 56.5449 351.788 56.5169 351.813 56.4889C352.032 56.2381 352.345 56.0384 352.6 55.8096M351.739 56.573C352.052 56.3316 352.338 56.0754 352.6 55.8096M351.739 56.573C351.728 56.5816 351.717 56.5903 351.705 56.5989C351.288 56.9177 350.878 57.2424 350.467 57.5621C349.877 58.0202 349.512 58.5946 348.994 59.0841C348.197 59.8382 347.365 60.5681 346.723 61.385C346.318 61.9001 345.853 62.5263 345.208 62.9368M352.6 55.8096C352.672 55.7447 352.74 55.6774 352.799 55.606C352.81 55.5927 352.821 55.5792 352.831 55.5657M352.6 55.8096C352.679 55.7291 352.756 55.6478 352.831 55.5657M352.831 55.5657C352.982 55.368 353.053 55.1546 353.201 54.9431C353.245 54.8803 353.065 55.3016 352.986 55.392C352.936 55.4502 352.884 55.5081 352.831 55.5657ZM360.519 55.2279C360.519 55.2171 360.519 55.2102 360.519 55.2066M360.519 55.2066C360.516 55.1917 360.509 55.2336 360.499 55.2959M360.519 55.2066C360.532 55.1302 360.555 55.056 360.597 54.986C360.681 54.8445 360.6 55.0296 360.51 55.2661M360.519 55.2066C360.515 55.2263 360.512 55.2461 360.51 55.2661M360.499 55.2959C360.484 55.3872 360.463 55.5224 360.442 55.5862C360.413 55.6748 360.34 55.9729 360.356 55.7792C360.365 55.6681 360.433 55.4713 360.499 55.2959ZM360.499 55.2959C360.503 55.2859 360.506 55.2759 360.51 55.2661M360.51 55.2661C360.486 55.4872 360.526 55.7214 360.442 55.9201C360.311 56.2295 360.167 56.574 359.964 56.8817C359.488 57.6026 359.155 58.3304 359.367 59.1174C359.495 59.59 359.372 60.1475 359.372 60.6303V63.0681C359.372 63.4392 359.208 63.7634 359.208 64.1308C359.208 64.5267 359.372 64.9124 359.372 65.2885C359.372 65.5616 360.02 65.9076 360.274 66.0878C360.764 66.4372 361.526 67.2554 362.364 66.8045C362.655 66.6476 362.892 66.395 363.261 66.2532C363.543 66.1449 364.077 65.8234 364.208 65.6468M380.208 60.5249C380.423 60.4062 380.676 60.3109 380.949 60.2507M380.949 60.2507C381.157 60.205 381.375 60.1796 381.596 60.1796C381.721 60.1796 381.814 60.1737 381.88 60.1635M380.949 60.2507C380.967 60.3059 380.988 60.3541 381.01 60.3868C381.169 60.6223 381.061 60.8852 381.183 61.1309C381.413 61.5969 381.109 62.1279 381.54 62.5809C381.796 62.849 381.983 63.2634 382.12 63.563C382.312 63.9796 382.811 64.3264 383.07 64.7214C383.395 65.2171 384.113 65.6473 384.871 65.8569L384.886 65.8609C385.277 65.969 385.315 65.9797 384.982 65.7725C384.791 65.6537 384.429 65.4938 384.205 65.4119C383.913 65.3052 383.775 65.1434 383.564 64.9976C383.397 64.8826 383.41 64.6038 383.261 64.5296C383.033 64.4161 382.984 63.7116 382.984 63.5284C382.984 63.271 382.805 62.7273 382.595 62.4927C382.379 62.2504 382.207 61.6653 382.207 61.388C382.207 61.0357 382.094 60.7459 381.978 60.4213C381.946 60.331 381.916 60.244 381.88 60.1635M380.949 60.2507C380.905 60.1122 380.875 59.9298 380.874 59.8397M381.88 60.1635C382.127 60.125 381.987 60.0249 381.748 59.9451M381.88 60.1635C381.844 60.0831 381.803 60.0092 381.748 59.9451M381.748 59.9451C381.564 59.8837 381.322 59.8344 381.152 59.8344C381.117 59.8344 381.005 59.8379 380.874 59.8397M381.748 59.9451C381.619 59.7935 381.417 59.6963 381.041 59.6963C381.007 59.6963 380.946 59.6932 380.874 59.691M380.874 59.8397C380.634 59.8429 380.331 59.8404 380.331 59.7999C380.331 59.6846 380.655 59.6842 380.874 59.691M380.874 59.8397L380.874 59.8344V59.691M380.874 59.691V59.282C380.874 59.0169 380.697 58.9368 381.183 58.9368C381.863 58.9368 381.651 59.4485 381.651 59.7653M396.208 55.9368C396.208 56.7091 397.832 57.3475 398.081 58.1142C398.358 58.9662 398.095 60.0619 398.095 60.9368M365.208 64.9368C365.337 64.8999 365.653 64.1871 365.747 63.9694C365.883 63.6543 366.095 63.6993 366.225 63.4335C366.327 63.2231 366.675 63.2897 366.809 63.2897C366.951 63.2897 367.384 63.3304 367.129 62.9368M441.818 63.2984C441.791 63.3153 441.764 63.3322 441.738 63.3491M441.738 63.3491C441.394 63.566 441.066 63.7756 440.703 63.9769C440.353 64.1712 440.03 64.4433 439.624 64.5775C439.394 64.6537 439.061 64.7709 438.806 64.7838C438.655 64.7914 438.392 64.8392 438.252 64.9108M441.738 63.3491C441.51 63.4345 441.279 63.5135 441.057 63.6078C440.566 63.8171 440.202 64.1592 439.667 64.3299C439.267 64.4572 438.882 64.6394 438.491 64.7838C438.436 64.8042 438.317 64.8727 438.252 64.9108M441.738 63.3491C441.896 63.2896 442.053 63.227 442.203 63.154C442.443 63.037 442.941 63 443.127 62.8239C443.207 62.7483 443.572 62.6619 443.699 62.6405C444.088 62.5751 444.376 62.3974 444.768 62.3574M438.252 64.9108C438.241 64.9164 438.231 64.9222 438.221 64.9282C438.193 64.946 438.212 64.9341 438.252 64.9108ZM444.768 62.3574C444.819 62.3522 444.872 62.3494 444.927 62.3494C445.284 62.3494 444.988 62.9226 444.914 63.0829C444.775 63.3874 444.817 63.0641 444.817 62.9178C444.817 62.7646 444.773 62.6055 444.763 62.4731C444.76 62.4357 444.761 62.3959 444.768 62.3574ZM444.768 62.3574C444.788 62.2488 444.858 62.1505 445.036 62.1431C445.356 62.1296 445.142 62.0535 445.09 61.9368M445.208 61.9368V62.9368M464.715 64.5199C465.272 64.5199 466.059 64.5672 466.441 64.8804C466.818 65.1897 465.997 64.1402 465.691 63.7988C465.562 63.6543 463.656 63.4246 465.107 63.278C465.378 63.2506 465.706 63.1902 465.998 63.1737M465.998 63.1737C466.413 63.1503 466.755 63.2159 466.755 63.5927C466.755 63.8747 466.801 63.8714 466.598 63.6385C466.466 63.487 466.248 63.2919 465.998 63.1737ZM465.998 63.1737C465.91 63.1326 465.819 63.1008 465.726 63.0834C465.436 63.0289 465.185 62.9747 464.872 62.9747H464.401C465.123 62.9747 466.192 62.8402 466.825 63.0777C467.353 63.2757 467.34 64.1579 466.755 63.9018M494.842 61.216C494.842 61.4083 494.661 61.5822 494.592 61.7664C494.528 61.9347 494.488 62.0814 494.488 62.2573C494.488 62.2883 494.486 62.3203 494.484 62.3529M494.484 62.3529C494.468 62.5379 494.405 62.743 494.26 62.8969C494.097 63.07 494.359 62.6408 494.484 62.3529ZM494.484 62.3529C494.51 62.2928 494.53 62.2388 494.538 62.1978C494.568 62.0577 494.851 61.8504 494.994 61.7366C495.139 61.6206 495.203 61.4613 495.297 61.3284C495.373 61.2221 495.535 61.0866 495.55 60.9714C495.57 60.8284 495.759 60.5849 495.879 60.4574C496 60.3289 496.208 60.0813 496.208 59.9368M493.208 54.9368C493.868 54.9368 494.928 54.934 495.302 55.1855C495.487 55.3094 495.605 55.4486 495.755 55.5781C495.887 55.6917 496.208 55.8069 496.208 55.9368M504.208 62.9368C504.208 62.8379 504.794 62.6298 504.983 62.6298C505.278 62.6298 505.588 62.5729 505.89 62.5641C506.101 62.5579 505.979 62.4663 505.979 62.4106C505.979 62.3166 505.737 62.3448 505.602 62.3448C505.461 62.3448 505.336 62.3603 505.227 62.3882M505.227 62.3882C505.096 62.4217 504.988 62.473 504.901 62.537M505.227 62.3882C505.197 62.4031 505.167 62.418 505.138 62.4325C505.066 62.4681 504.974 62.5005 504.901 62.537M505.227 62.3882C505.343 62.3308 505.466 62.2731 505.6 62.2352C505.716 62.2023 505.889 62.2042 506.001 62.2474C506.061 62.2705 506.111 62.2984 506.151 62.3299M504.901 62.537C504.871 62.5592 504.843 62.5829 504.818 62.6079C504.745 62.6805 504.813 62.589 504.852 62.5641C504.867 62.5547 504.884 62.5457 504.901 62.537ZM506.151 62.3299C506.166 62.3417 506.179 62.354 506.19 62.3668C506.223 62.4039 506.2 62.4886 506.2 62.4886C506.2 62.4886 506.203 62.4048 506.178 62.3655C506.17 62.3536 506.161 62.3417 506.151 62.3299ZM506.151 62.3299C506.105 62.2767 506.04 62.2248 506.023 62.1695C505.996 62.0822 505.73 61.9703 505.558 61.9514C505.48 61.9429 505.447 61.9142 505.447 61.9721C505.447 62.0244 505.424 62.0628 505.406 62.1134C505.381 62.1819 505.579 62.1256 505.713 62.1256M506.208 61.9368V62.9368M514.332 57.9368C513.92 57.6942 514.636 57.068 514.977 56.8897C515.506 56.6129 515.946 56.3 516.462 56.0137C517.018 55.7053 517.428 55.3155 518.005 55.0137C518.345 54.8353 518.619 54.6459 518.996 54.4923C519.425 54.3178 519.857 54.1571 520.208 53.9368M382.208 58.9368C382.208 59.4809 382.275 60.0157 382.418 60.5409C382.585 61.1515 383.024 61.7061 383.224 62.3078C383.409 62.8617 383.902 63.3921 384.053 63.946C384.197 64.4719 385.421 64.9296 386.142 64.9296C387.024 64.9296 387.931 64.9808 388.771 64.8086C389.767 64.6043 390.946 64.7552 391.916 64.4681C392.185 64.3885 392.798 64.2486 393.091 64.2486C393.486 64.2486 393.866 63.991 394.266 63.9762C394.644 63.9622 396.208 63.5419 396.208 63.2952M381.208 57.9428C381.874 57.9428 383.401 57.8357 383.519 58.5252C383.553 58.7249 383.777 59.0446 383.894 59.2371C384.063 59.5128 384.052 59.9026 384.052 60.2078V62.3434C384.052 62.7434 384.278 63.0806 384.477 63.4579C384.54 63.5769 385.081 64.0811 385.208 63.8966M66.7361 41.7494C68.1836 41.7494 69.7545 41.4794 71.0568 41.4794C71.9637 41.4794 74.503 41.8301 75.1076 41.0743C75.2368 40.9127 77.0371 40.4235 77.268 40.3992C77.9928 40.3229 78.5979 39.7586 79.2933 39.604C80.7108 39.289 82.2695 39.0489 83.7491 39.0489C85.1239 39.0489 86.4389 38.5088 87.7998 38.5088H98.0617C98.472 38.5088 98.8452 38.3828 98.9561 38.3407M98.9561 38.3407C98.9984 38.3246 99.0026 38.3207 98.9561 38.3407ZM98.9561 38.3407C98.9049 38.3627 98.7924 38.4135 98.6018 38.5088M115.702 50.4443C115.702 52.7294 115.419 54.8954 115.419 57.1968C115.419 59.3112 115.31 61.5603 115.419 63.7296C115.447 64.2922 115.56 64.8407 115.56 65.4256C115.56 65.5989 115.658 66.7473 115.772 66.8389C115.908 66.9477 115.984 68.1172 115.984 68.3229C115.984 68.8358 116.238 69.2926 116.267 69.8069C116.323 70.8088 116.974 71.7377 116.974 72.7042C116.974 73.1755 117.288 73.556 117.405 73.9684C117.543 74.4514 118.387 74.2627 118.387 73.7642M115.173 64.3141C115.173 66.0215 115.002 67.5906 115.002 69.2899C115.002 70.0532 114.83 70.881 114.83 71.6921V72.8931M114.83 72.8931V73.0647C114.83 73.6176 115.087 73.5347 114.83 72.8931ZM115.86 74.0942C115.86 74.8062 116.776 74.2658 117.318 74.2658C118.015 74.2658 118.881 74.1387 119.463 73.751M459.035 55.4108C459.035 55.8639 458.44 56.2512 458.44 56.7092C458.44 56.9181 458.108 57.1258 458.082 57.3213C458.031 57.7125 457.585 58.1383 457.427 58.53C457.329 58.7716 457.381 59.1728 457.189 59.376C456.979 59.5986 457.294 59.9197 457.037 60.1285C456.883 60.2527 456.891 60.6221 456.891 60.7797C456.891 60.9077 456.822 61.1386 456.737 61.3218M456.737 61.3218C456.702 61.3989 456.663 61.4675 456.626 61.5166C456.341 61.8949 455.938 62.4133 455.938 62.8149C455.938 63.3081 455.461 63.7922 455.461 64.2887C455.461 64.5033 455.307 64.7147 455.23 64.9203C455.185 65.0394 455.223 64.4766 455.223 64.3394C455.223 63.5169 455.526 62.813 456.15 62.078C456.36 61.8305 456.555 61.5781 456.737 61.3218ZM456.737 61.3218C457.744 59.9051 458.356 58.3707 458.916 56.8846C459.125 56.3308 459.395 55.7762 459.776 55.2705C459.978 55.0038 460.287 54.7855 460.524 54.5336C460.763 54.2804 460.848 53.9464 461.18 53.7265C461.414 53.5712 461.494 53.3698 461.749 53.2196C462.024 53.0575 462.389 52.9362 462.662 52.7752C463.273 52.4155 463.828 51.9626 464.522 51.6562C465.762 51.1082 466.937 50.436 468.208 49.9368M354.161 55.6942C354.296 55.683 354.994 55.1477 355.083 55.0451C355.258 54.8425 355.528 54.534 355.807 54.3863C356.366 54.0902 356.64 53.7206 357.321 53.495C358.29 53.1742 358.916 53.0784 360.02 53.0784C360.175 53.0784 359.13 52.8168 358.835 52.8168C358.31 52.8168 357.773 52.7552 357.321 52.9476C356.192 53.4285 355.449 54.1113 354.556 54.7351C353.575 55.4213 352.594 56.1219 351.594 56.7842C351.242 57.0169 350.987 57.3118 350.636 57.5447C350.175 57.8498 351.235 56.7733 351.63 56.4305C352.395 55.7681 353.128 55.15 353.971 54.5607C355.001 53.8408 355.897 53.0639 357.052 52.4974M357.052 52.4974C357.484 52.2857 357.952 52.1033 358.477 51.9643C359.494 51.6948 360.423 51.4792 361.476 51.6785C362.375 51.8486 362.193 52.7291 362.193 53.2092C362.193 53.9918 361.184 54.685 361.14 55.452C361.094 56.2386 360.727 57.1012 360.452 57.8741C360.242 58.4646 360.077 59.0927 359.947 59.6954C359.862 60.0914 359.823 59.169 359.823 59.056C359.823 58.6287 360.163 58.2224 360.35 57.8208C360.753 56.953 360.745 55.9851 360.745 55.0839C360.745 54.8849 360.583 51.4403 359.691 51.7027C359.069 51.8858 358.574 52.133 357.906 52.2937C357.621 52.3624 357.337 52.4299 357.052 52.4974ZM357.052 52.4974C356.727 52.5745 356.402 52.6515 356.078 52.7297C355.551 52.8566 354.798 53.3403 354.425 53.6016C353.827 54.0191 353.112 54.3995 352.684 54.9095C352.331 55.3302 351.673 55.6969 351.265 56.1108C350.918 56.4621 350.535 56.8088 350.241 57.1765C350.035 57.4335 349.978 57.3753 349.987 57.2214M349.987 57.2214C349.997 57.0499 350.088 56.7595 350.145 56.6534C350.431 56.1242 350.805 55.6148 351.199 55.1226C351.778 54.3986 352.435 53.7094 353.006 52.9912C353.551 52.3053 354.242 51.7031 354.82 51.0342C355.333 50.4397 356.247 49.8032 356.597 49.1547C356.759 48.8549 357.006 48.5647 357.219 48.2828C357.286 48.1935 357.339 48.1192 357.377 48.0627M349.987 57.2214C350.032 57.1411 350.064 57.0666 350.08 57.0021C350.187 56.5499 350.82 55.9832 351.133 55.5683C351.544 55.0243 352.109 54.5369 352.523 53.9891C353.403 52.8234 354.446 51.7251 355.478 50.6322C356.204 49.8627 356.834 49.0566 357.292 48.215C357.325 48.1536 357.354 48.103 357.377 48.0627M349.987 57.2214C349.811 57.5393 349.449 57.9473 349.231 58.1744C348.93 58.4882 348.626 58.9574 348.507 59.3128C348.311 59.8964 347.9 60.4748 347.578 61.0615C347.161 61.8208 346.725 62.6329 346.232 63.3673C345.999 63.7138 345.896 64.9368 345.208 64.9368M357.377 48.0627C357.484 47.9046 357.48 47.8852 357.377 48.0627ZM319.934 59.9368C319.934 60.2869 319.498 60.604 319.498 60.9281C319.498 61.3397 319.208 61.7455 319.208 62.1781C319.208 62.9258 320.351 63.2831 321.313 63.6005C321.803 63.7623 322.442 64.0346 322.982 64.0747C323.514 64.1142 324.087 64.5057 324.652 64.5057C325.212 64.5057 325.77 64.7451 326.321 64.7643C326.657 64.7761 328.089 64.7951 328.208 64.9368M65.8972 69.4614C69.467 69.4614 72.7992 68.3817 76.3346 68.3817C79.3906 68.3817 82.7004 68.0218 85.8721 68.0218H90.5509C91.1086 68.0218 91.2535 67.4048 91.084 66.9401M91.084 66.9401C91.0155 66.7523 90.8956 66.5894 90.7309 66.5022C89.8645 66.0435 89.294 66.0429 88.3915 65.8423C85.2607 65.1466 82.1778 65.1425 78.8539 65.1425C74.8586 65.1425 71.1915 66.5821 67.3369 66.5821C66.4583 66.5821 63.2626 66.942 65.8972 66.942H70.756C74.5673 66.942 78.3941 66.5821 82.273 66.5821C85.1812 66.5821 88.3333 66.9119 91.084 66.9401ZM91.084 66.9401C91.207 66.9414 91.3293 66.942 91.4507 66.942M266.208 62.9184C266.208 62.3558 266.302 61.8673 266.491 61.4528C266.717 61.0383 267.264 60.8311 268.131 60.8311C268.206 60.8311 268.376 60.8459 268.639 60.8755C268.941 60.8755 269.148 60.8903 269.261 60.9199C269.224 62.3114 269.506 63.3625 270.11 64.073C270.713 64.754 271.844 65.0945 273.502 65.0945C274.86 65.0945 276.198 64.9316 277.517 64.606C278.837 64.2803 280.024 63.8066 281.08 63.1848C282.173 62.5335 283.04 61.7489 283.681 60.8311C284.359 59.9133 284.698 58.877 284.698 57.7224C284.698 57.0118 284.378 56.5085 283.737 56.2124C283.134 55.9163 282.456 55.6795 281.702 55.5018C280.948 55.3242 280.25 55.1318 279.609 54.9245C279.006 54.6876 278.705 54.288 278.705 53.7254C278.705 53.0445 279.232 52.3931 280.288 51.7714C281.343 51.1496 282.587 50.6019 284.02 50.1282C285.452 49.6249 286.866 49.24 288.261 48.9735C289.693 48.6774 290.787 48.5294 291.541 48.5294C291.541 49.388 291.296 49.9949 290.805 50.3502C290.353 50.7055 289.788 50.9868 289.109 51.194C288.431 51.4013 287.733 51.6085 287.017 51.8158C286.338 51.9934 285.773 52.3487 285.32 52.8816C285.924 53.2665 286.414 53.6218 286.791 53.9475C287.205 54.2435 287.526 54.5692 287.752 54.9245C287.978 55.2798 288.129 55.6795 288.204 56.1236C288.28 56.5381 288.317 57.0414 288.317 57.6335C288.317 59.1731 287.884 60.5794 287.017 61.8525C286.188 63.096 285.094 64.1767 283.737 65.0945C282.38 65.9827 280.835 66.6785 279.1 67.1818C277.366 67.6555 275.595 67.8923 273.785 67.8923C272.805 67.8923 271.844 67.8035 270.901 67.6259C269.997 67.4186 269.186 67.1078 268.47 66.6933C267.791 66.2788 267.245 65.7606 266.83 65.1389C266.415 64.5172 266.208 63.777 266.208 62.9184ZM304.634 65.6274C304.634 65.1833 304.804 64.5616 305.143 63.7622C305.482 62.9332 305.916 62.045 306.444 61.0975C307.009 60.1501 307.631 59.1879 308.31 58.2109C309.026 57.2338 309.742 56.3456 310.459 55.5462C311.175 54.7469 311.853 54.0955 312.494 53.5922C313.135 53.0889 313.7 52.8372 314.191 52.8372C315.246 52.8372 315.774 53.2369 315.774 54.0363C315.774 54.3916 315.68 54.6876 315.491 54.9245C315.34 55.1614 315.152 55.3834 314.926 55.5907C314.699 55.7979 314.454 56.0052 314.191 56.2124C313.927 56.39 313.7 56.6121 313.512 56.8786C313.173 57.3227 312.758 57.9296 312.268 58.6994C311.778 59.4692 311.288 60.2241 310.798 60.9643C310.345 61.6749 309.95 62.3114 309.61 62.874C309.271 63.4365 309.101 63.7474 309.101 63.8066V64.3839C310.572 64.1767 311.985 63.6882 313.342 62.9184C314.699 62.119 315.981 61.1864 317.188 60.1205C318.432 59.0547 319.6 57.9444 320.693 56.7897C321.824 55.6055 322.88 54.5248 323.86 53.5478C324.84 52.5411 325.764 51.7121 326.631 51.0608C327.498 50.4094 328.308 50.0838 329.062 50.0838C329.062 51.1792 328.779 52.1711 328.214 53.0593C327.648 53.9475 327.026 54.8209 326.348 55.6795C325.707 56.5381 325.104 57.4263 324.538 58.3441C323.973 59.2323 323.69 60.2389 323.69 61.364C323.69 61.8377 324.048 62.267 324.765 62.6519C325.519 63.0072 326.367 63.3181 327.309 63.5845C328.289 63.8214 329.232 64.0138 330.137 64.1619C331.041 64.3099 331.663 64.3987 332.003 64.4283V65.583C331.135 65.6126 330.061 65.6274 328.779 65.6274C327.498 65.5978 326.216 65.4794 324.934 65.2721C323.653 65.0649 322.484 64.7244 321.428 64.2507C320.411 63.7474 319.732 63.022 319.393 62.0746C318.413 62.5779 317.47 63.17 316.565 63.851C315.661 64.532 314.718 65.1685 313.738 65.7606C312.796 66.3528 311.797 66.8561 310.741 67.2706C309.686 67.6851 308.536 67.8923 307.292 67.8923C306.538 67.8923 305.897 67.6407 305.369 67.1374C304.879 66.634 304.634 66.1307 304.634 65.6274ZM343.513 65.8495C343.513 65.583 343.513 65.3758 343.513 65.2277C343.513 65.0797 343.532 64.9464 343.57 64.828C343.645 64.68 343.739 64.532 343.852 64.3839C343.965 64.2359 344.116 64.0434 344.305 63.8066C344.606 63.3921 345.172 62.6667 346.001 61.6305C346.83 60.5942 347.716 59.4988 348.659 58.3441C349.601 57.1894 350.487 56.094 351.316 55.0577C352.183 54.0215 352.786 53.2961 353.126 52.8816C353.163 52.852 353.258 52.8372 353.409 52.8372C353.597 52.8372 353.729 52.8372 353.804 52.8372C353.88 52.8372 354.012 52.8372 354.2 52.8372C354.389 52.8372 354.502 52.852 354.539 52.8816C354.577 52.9112 354.653 52.9852 354.766 53.1037C354.916 53.2221 355.067 53.3553 355.218 53.5034C355.406 53.6218 355.557 53.7402 355.67 53.8587C355.821 53.9771 355.934 54.0363 356.01 54.0363C356.349 54.0363 356.707 53.9475 357.084 53.7698C357.461 53.5922 357.838 53.3997 358.215 53.1925C358.63 52.9556 359.044 52.7484 359.459 52.5707C359.874 52.3931 360.307 52.3043 360.759 52.3043C361.25 52.3043 361.702 52.3931 362.117 52.5707C362.531 52.7484 362.889 52.9704 363.191 53.2369C363.493 53.5034 363.719 53.7994 363.869 54.1251C364.058 54.4508 364.152 54.7765 364.152 55.1021C364.152 55.7831 364.02 56.4345 363.756 57.0562C363.53 57.6779 363.266 58.2997 362.965 58.9214C362.663 59.5136 362.38 60.1205 362.117 60.7423C361.89 61.3344 361.777 61.9561 361.777 62.6075C361.777 63.2589 361.872 63.7326 362.06 64.0286C362.249 64.2951 362.776 64.4283 363.643 64.4283C364.661 64.4283 365.622 64.3099 366.527 64.073C367.47 63.8362 368.431 63.7178 369.411 63.7178C369.411 64.4283 369.128 65.0205 368.563 65.4942C368.035 65.9679 367.356 66.3528 366.527 66.6488C365.735 66.9153 364.868 67.1078 363.926 67.2262C363.021 67.315 362.192 67.3594 361.438 67.3594C360.006 67.3594 358.95 67.0485 358.271 66.4268C357.631 65.7754 357.31 64.9168 357.31 63.851C357.31 63.1404 357.461 62.4743 357.763 61.8525C358.102 61.2308 358.46 60.6238 358.837 60.0317C359.252 59.4396 359.629 58.8474 359.968 58.2553C360.307 57.6631 360.477 57.0266 360.477 56.3456C360.477 56.168 360.439 55.9311 360.364 55.6351C360.288 55.339 360.043 55.191 359.629 55.191C358.385 55.191 357.254 55.5018 356.236 56.1236C355.256 56.7453 354.351 57.5299 353.522 58.4773C352.73 59.4248 351.995 60.4462 351.316 61.5417C350.675 62.6371 350.053 63.6586 349.45 64.606C348.885 65.5534 348.338 66.338 347.81 66.9597C347.283 67.5815 346.736 67.8923 346.171 67.8923C345.379 67.8923 344.738 67.6999 344.248 67.315C343.758 66.9301 343.513 66.4416 343.513 65.8495ZM378.942 62.9184C378.942 62.3558 379.037 61.8673 379.225 61.4528C379.451 61.0383 379.998 60.8311 380.865 60.8311C380.94 60.8311 381.11 60.8459 381.374 60.8755C381.675 60.8755 381.883 60.8903 381.996 60.9199C381.958 62.3114 382.241 63.3625 382.844 64.073C383.447 64.754 384.578 65.0945 386.237 65.0945C387.594 65.0945 388.932 64.9316 390.252 64.606C391.571 64.2803 392.758 63.8066 393.814 63.1848C394.907 62.5335 395.774 61.7489 396.415 60.8311C397.094 59.9133 397.433 58.877 397.433 57.7224C397.433 57.0118 397.112 56.5085 396.472 56.2124C395.868 55.9163 395.19 55.6795 394.436 55.5018C393.682 55.3242 392.985 55.1318 392.344 54.9245C391.741 54.6876 391.439 54.288 391.439 53.7254C391.439 53.0445 391.967 52.3931 393.022 51.7714C394.078 51.1496 394.345 50.8239 395.777 50.3502C397.21 49.8469 399.6 49.24 400.995 48.9735C402.428 48.6774 403.521 48.5294 404.275 48.5294C404.275 49.388 404.03 49.9949 403.54 50.3502C403.087 50.7055 402.522 50.9868 401.843 51.194C401.165 51.4013 400.467 50.4249 399.751 50.6322C399.073 50.8098 398.507 52.3487 398.055 52.8816C398.658 53.2665 399.148 53.6218 399.525 53.9475C399.94 54.2435 400.26 54.5692 400.486 54.9245C400.713 55.2798 400.863 55.6795 400.939 56.1236C401.014 56.5381 401.052 57.0414 401.052 57.6335C401.052 59.1731 400.618 60.5794 399.751 61.8525C398.922 63.096 397.829 64.1767 396.472 65.0945C395.114 65.9827 393.569 66.6785 391.835 67.1818C390.101 67.6555 388.329 67.8923 386.52 67.8923C385.539 67.8923 384.578 67.8035 383.636 67.6259C382.731 67.4186 381.92 67.1078 381.204 66.6933C380.526 66.2788 379.979 65.7606 379.564 65.1389C379.15 64.5172 378.942 63.777 378.942 62.9184ZM436.368 67.8923C435.426 68.0108 434.559 67.8923 433.767 67.5371C433.013 67.1522 432.41 66.6637 431.957 66.0715C431.505 65.4498 431.241 64.7836 431.166 64.073C431.09 63.3329 431.279 62.6667 431.731 62.0746C433.39 60.387 434.521 59.0547 435.124 58.0776C435.727 57.071 435.935 56.3752 435.746 55.9904C435.595 55.5759 435.124 55.413 434.332 55.5018C433.578 55.561 432.655 55.8275 431.562 56.3012C430.468 56.7453 429.281 57.3375 427.999 58.0776C426.755 58.8178 425.587 59.632 424.493 60.5202C423.4 61.4084 422.439 62.341 421.61 63.3181C420.818 64.2655 420.309 65.1981 420.083 66.1159C419.706 66.2936 419.385 66.4416 419.122 66.56C418.858 66.6488 418.556 66.6933 418.217 66.6933C417.651 66.6933 417.312 66.5452 417.199 66.2492C417.086 65.9531 417.029 65.6422 417.029 65.3165C417.029 64.5764 417.312 63.8214 417.878 63.0516C418.481 62.2522 419.159 61.512 419.913 60.8311C420.705 60.1205 421.459 59.484 422.175 58.9214C422.891 58.3293 423.4 57.8556 423.702 57.5003C424.644 56.2864 425.587 54.9837 426.529 53.5922C427.472 52.1711 428.414 50.7351 429.356 49.2844C430.299 47.804 431.26 46.3533 432.24 44.9322C433.258 43.4814 434.314 42.1047 435.407 40.802C435.595 40.5651 435.746 40.4023 435.859 40.3135C436.01 40.2247 436.217 40.1802 436.481 40.1802C436.783 40.1802 437.009 40.2247 437.16 40.3135C437.31 40.4023 437.461 40.5651 437.612 40.802C437.612 40.9204 437.574 41.1129 437.499 41.3793C437.461 41.6458 437.405 41.9419 437.329 42.2675C437.292 42.5636 437.216 42.8449 437.103 43.1113C437.028 43.3778 436.971 43.5554 436.934 43.6443C436.707 43.9995 436.33 44.6213 435.803 45.5095C435.275 46.3977 434.691 47.3451 434.05 48.3518C433.447 49.3584 432.862 50.3502 432.297 51.3273C431.731 52.2747 431.317 52.9852 431.053 53.459C431.618 53.1629 432.127 52.9408 432.579 52.7928C433.032 52.6152 433.465 52.4967 433.88 52.4375C434.332 52.3487 434.785 52.3043 435.237 52.3043C435.727 52.2747 436.255 52.2599 436.82 52.2599C438.178 52.5263 439.063 52.926 439.478 53.459C439.93 53.9919 440.062 54.6136 439.874 55.3242C439.723 56.0052 439.365 56.7601 438.8 57.5891C438.234 58.4181 437.631 59.2619 436.99 60.1205C436.387 60.9495 435.84 61.7637 435.35 62.5631C434.86 63.3329 434.634 64.0434 434.672 64.6948C434.672 64.9613 434.747 65.1537 434.898 65.2721C435.049 65.3906 435.237 65.4794 435.463 65.5386C435.69 65.5978 435.935 65.6274 436.198 65.6274C436.462 65.6274 436.707 65.6274 436.934 65.6274C437.725 65.6274 438.479 65.5386 439.195 65.3609C439.949 65.1537 440.684 64.9316 441.401 64.6948C442.117 64.4579 442.833 64.2507 443.549 64.073C444.303 63.8658 445.076 63.7622 445.868 63.7622C445.868 64.3247 445.51 64.8576 444.793 65.3609C444.077 65.8643 443.21 66.3084 442.192 66.6933C441.212 67.0485 440.175 67.3446 439.082 67.5815C437.989 67.7887 437.084 67.8923 436.368 67.8923ZM454.381 64.9613C454.381 64.5468 454.438 64.1915 454.551 63.8954C454.664 63.5697 454.871 63.1552 455.173 62.6519C455.437 62.3558 455.908 61.7933 456.587 60.9643C457.303 60.1353 458.038 59.2619 458.792 58.3441C459.584 57.4263 460.319 56.5677 460.997 55.7683C461.713 54.9393 462.203 54.362 462.467 54.0363C462.807 53.6514 463.071 53.4442 463.259 53.4145C463.448 53.3849 463.806 53.3701 464.333 53.3701C464.673 53.3701 465.031 53.3849 465.408 53.4145C465.822 53.4442 466.086 53.6514 466.199 54.0363C465.672 55.0429 464.955 56.0052 464.051 56.923C463.184 57.8112 462.317 58.6994 461.45 59.5876C460.62 60.4758 459.885 61.3936 459.244 62.341C458.603 63.2589 458.283 64.2507 458.283 65.3165C458.434 65.3165 458.66 65.3313 458.962 65.3609C459.301 65.3906 459.659 65.4202 460.036 65.4498C460.413 65.4794 460.752 65.509 461.054 65.5386C461.393 65.5682 461.638 65.5682 461.789 65.5386C462.015 65.509 462.392 65.4498 462.92 65.3609C463.485 65.2425 464.07 65.1241 464.673 65.0057C465.314 64.8872 465.917 64.7688 466.482 64.6504C467.048 64.532 467.443 64.4431 467.67 64.3839C467.67 64.4431 467.67 64.5468 467.67 64.6948C467.707 64.8132 467.726 64.902 467.726 64.9613C467.726 65.5534 467.368 66.0419 466.652 66.4268C465.973 66.8117 465.163 67.1226 464.22 67.3594C463.316 67.5667 462.373 67.7147 461.393 67.8035C460.451 67.8627 459.715 67.8923 459.188 67.8923C458.622 67.8923 458.038 67.8479 457.435 67.7591C456.869 67.6407 456.36 67.463 455.908 67.2262C455.456 66.9893 455.079 66.6933 454.777 66.338C454.513 65.9531 454.381 65.4942 454.381 64.9613ZM470.836 38.9368C471.326 38.9368 471.779 38.9516 472.193 38.9812C472.608 39.0108 472.966 39.0848 473.268 39.2032C473.569 39.3216 473.814 39.4993 474.003 39.7361C474.191 39.973 474.285 40.2987 474.285 40.7132C474.285 40.8908 474.285 41.0833 474.285 41.2905C474.285 41.4978 474.248 41.705 474.172 41.9123C474.135 42.0899 474.04 42.2527 473.89 42.4008C473.739 42.5192 473.494 42.5784 473.155 42.5784C472.627 42.5784 472.193 42.4304 471.854 42.1343C471.552 41.8382 471.326 41.4978 471.175 41.1129C471.025 40.6984 470.93 40.2839 470.893 39.8694C470.855 39.4549 470.836 39.144 470.836 38.9368ZM479.915 65.8495C479.915 65.583 479.915 65.3758 479.915 65.2277C479.915 65.0797 479.934 64.9464 479.972 64.828C480.047 64.68 480.141 64.532 480.254 64.3839C480.368 64.2359 480.518 64.0434 480.707 63.8066C481.008 63.3921 481.574 62.6667 482.403 61.6305C483.233 60.5942 484.118 59.4988 485.061 58.3441C486.003 57.1894 486.889 56.094 487.719 55.0577C488.586 54.0215 489.189 53.2961 489.528 52.8816C489.566 52.852 489.66 52.8372 489.811 52.8372C489.999 52.8372 490.131 52.8372 490.206 52.8372C490.282 52.8372 490.414 52.8372 490.602 52.8372C490.791 52.8372 490.904 52.852 490.942 52.8816C490.979 52.9112 491.055 52.9852 491.168 53.1037C491.319 53.2221 491.469 53.3553 491.62 53.5034C491.809 53.6218 491.959 53.7402 492.073 53.8587C492.223 53.9771 492.336 54.0363 492.412 54.0363C492.751 54.0363 493.109 53.9475 493.486 53.7698C493.863 53.5922 494.24 53.3997 494.617 53.1925C495.032 52.9556 495.446 52.7484 495.861 52.5707C496.276 52.3931 496.709 52.3043 497.162 52.3043C497.652 52.3043 498.104 52.3931 498.519 52.5707C498.933 52.7484 499.292 52.9704 499.593 53.2369C499.895 53.5034 500.121 53.7994 500.272 54.1251C500.46 54.4508 500.554 54.7765 500.554 55.1021C500.554 55.7831 500.422 56.4345 500.159 57.0562C499.932 57.6779 499.668 58.2997 499.367 58.9214C499.065 59.5136 498.783 60.1205 498.519 60.7423C498.293 61.3344 498.179 61.9561 498.179 62.6075C498.179 63.2589 498.274 63.7326 498.462 64.0286C498.651 64.2951 499.178 64.4283 500.045 64.4283C501.063 64.4283 502.025 64.3099 502.929 64.073C503.872 63.8362 504.833 63.7178 505.813 63.7178C505.813 64.4283 505.53 65.0205 504.965 65.4942C504.437 65.9679 503.759 66.3528 502.929 66.6488C502.138 66.9153 501.271 67.1078 500.328 67.2262C499.423 67.315 498.594 67.3594 497.84 67.3594C496.408 67.3594 495.352 67.0485 494.674 66.4268C494.033 65.7754 493.712 64.9168 493.712 63.851C493.712 63.1404 493.863 62.4743 494.165 61.8525C494.504 61.2308 494.862 60.6238 495.239 60.0317C495.654 59.4396 496.031 58.8474 496.37 58.2553C496.709 57.6631 496.879 57.0266 496.879 56.3456C496.879 56.168 496.841 55.9311 496.766 55.6351C496.69 55.339 496.445 55.191 496.031 55.191C494.787 55.191 493.656 55.5018 492.638 56.1236C491.658 56.7453 490.753 57.5299 489.924 58.4773C489.132 59.4248 488.397 60.4462 487.719 61.5417C487.078 62.6371 486.456 63.6586 485.852 64.606C485.287 65.5534 484.74 66.338 484.213 66.9597C483.685 67.5815 483.138 67.8923 482.573 67.8923C481.781 67.8923 481.14 67.6999 480.65 67.315C480.16 66.9301 479.915 66.4416 479.915 65.8495ZM515.571 65.5386C514.93 64.4135 514.647 63.3181 514.723 62.2522C514.798 61.1568 515.099 60.1353 515.627 59.1879C516.193 58.2109 516.909 57.3375 517.776 56.5677C518.681 55.7683 519.642 55.0873 520.66 54.5248C521.678 53.9327 522.695 53.4886 523.713 53.1925C524.769 52.8964 525.692 52.778 526.484 52.8372C527.276 52.8668 527.898 53.0889 528.35 53.5034C528.802 53.9179 528.953 54.5544 528.802 55.413C528.802 56.5677 528.331 57.5743 527.389 58.4329C526.484 59.2915 525.466 60.0613 524.335 60.7423C523.242 61.4232 522.224 62.045 521.282 62.6075C520.377 63.1404 519.925 63.6437 519.925 64.1175C519.925 64.3839 520.113 64.5912 520.49 64.7392C520.905 64.8872 521.376 65.0057 521.904 65.0945C522.432 65.1537 522.959 65.1981 523.487 65.2277C524.015 65.2573 524.392 65.2869 524.618 65.3165C528.162 64.7244 530.819 64.3691 532.591 64.2507C534.363 64.1027 535.475 64.1175 535.927 64.2951C536.38 64.4431 536.285 64.6948 535.644 65.0501C535.041 65.3758 534.099 65.731 532.817 66.1159C531.535 66.4712 530.046 66.7969 528.35 67.093C526.654 67.389 524.976 67.5667 523.318 67.6259C521.659 67.6555 520.113 67.5223 518.681 67.2262C517.286 66.9301 516.249 66.3676 515.571 65.5386ZM525.466 55.413C524.712 55.413 523.996 55.5759 523.318 55.9015C522.639 56.2272 522.017 56.6417 521.451 57.145C520.924 57.6187 520.471 58.1517 520.094 58.7438C519.717 59.3063 519.435 59.8393 519.246 60.3426C519.322 60.3722 519.378 60.387 519.416 60.387H519.585C520.113 60.387 520.716 60.2093 521.395 59.8541C522.074 59.4988 522.714 59.0695 523.318 58.5662C523.921 58.0332 524.43 57.4855 524.844 56.923C525.259 56.3604 525.466 55.8571 525.466 55.413ZM44.464 77.2407C43.888 77.3047 43.344 77.3047 42.832 77.2407C42.32 77.1767 41.808 76.9207 41.296 76.4727C41.168 76.3447 40.976 76.2167 40.72 76.0887C40.4 75.8967 40.208 75.6727 40.144 75.4167C40.08 75.1607 39.952 74.9687 39.76 74.8407C39.568 74.6487 39.44 74.4247 39.376 74.1687C39.312 73.9767 39.28 73.7847 39.28 73.5927C39.344 73.3367 39.376 73.1127 39.376 72.9207C39.376 72.7287 39.344 72.5367 39.28 72.3447C39.28 72.1527 39.28 71.9607 39.28 71.7687C39.088 70.8087 38.896 69.8487 38.704 68.8887C38.512 67.8647 38.352 66.8728 38.224 65.9128C38.16 65.4648 38.096 65.0168 38.032 64.5688C37.968 64.1208 37.904 63.6728 37.84 63.2248C37.776 62.3928 37.68 61.5608 37.552 60.7288C37.488 59.8968 37.392 59.0647 37.264 58.2327C37.136 57.7207 37.072 57.2728 37.072 56.8888C37.072 56.3768 37.04 55.8968 36.976 55.4488C36.912 54.9368 36.848 54.4568 36.784 54.0088C36.72 53.6248 36.496 53.4328 36.112 53.4328L35.44 53.3368C35.12 53.2727 34.768 53.2408 34.384 53.2408C34 53.2408 33.616 53.2088 33.232 53.1448H32.272C32.144 53.2088 31.952 53.2408 31.696 53.2408C31.44 53.2408 31.184 53.2408 30.928 53.2408C30.736 53.1768 30.48 53.1768 30.16 53.2408C29.904 53.2408 29.648 53.2727 29.392 53.3368C29.2 53.3368 28.944 53.3048 28.624 53.2408C28.56 53.1768 28.432 53.1768 28.24 53.2408C28.112 53.2408 27.984 53.2408 27.856 53.2408C27.536 53.2408 27.184 53.2727 26.8 53.3368C26.48 53.3368 26.16 53.3368 25.84 53.3368C25.648 53.3368 25.456 53.3368 25.264 53.3368C25.072 53.3368 24.88 53.3688 24.688 53.4328C24.24 53.4968 23.792 53.5608 23.344 53.6248C22.896 53.6248 22.448 53.6248 22 53.6248C21.36 53.5608 20.72 53.5608 20.08 53.6248C19.44 53.6888 18.8 53.7527 18.16 53.8167H17.872C17.552 53.9447 17.392 54.1368 17.392 54.3927C17.392 54.4567 17.36 54.5208 17.296 54.5848C17.296 54.5848 17.296 54.6168 17.296 54.6808C17.296 55.0008 17.328 55.2568 17.392 55.4488C17.456 55.8968 17.52 56.3768 17.584 56.8888C17.648 57.3368 17.712 57.8168 17.776 58.3288L18.064 60.6328C18.128 61.2728 18.224 61.9128 18.352 62.5528C18.48 63.1288 18.576 63.7048 18.64 64.2808C18.704 64.3448 18.736 64.4408 18.736 64.5688C18.736 64.6328 18.768 64.7288 18.832 64.8568C18.96 65.1768 19.024 65.5288 19.024 65.9128C19.024 66.2968 19.024 66.6808 19.024 67.0648C19.152 67.1288 19.12 67.2568 18.928 67.4488C18.864 67.5768 18.8 67.7048 18.736 67.8328C18.672 67.9608 18.64 68.0887 18.64 68.2167C18.448 68.8567 18.032 69.4647 17.392 70.0407C16.752 70.5527 16.144 70.8407 15.568 70.9047C15.504 70.9047 15.44 70.9367 15.376 71.0007C15.312 71.0007 15.216 71.0007 15.088 71.0007C14.256 71.1927 13.36 71.1287 12.4 70.8087L12.112 70.6167C12.048 70.3607 11.92 70.1687 11.728 70.0407C11.536 69.9127 11.376 69.7847 11.248 69.6567C11.12 69.4647 10.96 69.3047 10.768 69.1767C10.64 68.9847 10.544 68.7607 10.48 68.5047C10.48 68.4407 10.448 68.4087 10.384 68.4087C10.128 68.0887 9.968 67.7368 9.904 67.3528C9.84 66.9688 9.776 66.5848 9.712 66.2008L9.424 64.6648C9.36 64.0888 9.264 63.5128 9.136 62.9368C9.072 62.2968 9.008 61.6568 8.944 61.0168L8.368 57.2728C8.304 56.8248 8.24 56.3768 8.176 55.9288C8.112 55.4168 8.048 54.9368 7.984 54.4888L7.696 51.4168C7.632 50.7768 7.568 50.1367 7.504 49.4967C7.44 48.8568 7.344 48.2168 7.216 47.5768V46.7128C7.216 46.2008 7.184 45.6888 7.12 45.1768C7.12 44.6648 7.088 44.1848 7.024 43.7368C6.96 43.5448 6.928 43.3528 6.928 43.1608C6.928 42.9688 6.928 42.7768 6.928 42.5848C6.928 42.2648 6.896 41.9768 6.832 41.7208C6.832 41.4008 6.8 41.0808 6.736 40.7608L6.448 38.7448C6.384 38.0408 6.256 37.3048 6.064 36.5368C5.936 35.7687 5.744 35.0327 5.488 34.3287C5.36 33.9447 5.2 33.5607 5.008 33.1767C4.816 32.7287 4.656 32.2807 4.528 31.8327C4.4 31.3207 4.272 30.9687 4.144 30.7767C3.952 30.1367 3.952 29.5287 4.144 28.9527L4.72 27.5127C4.784 27.2567 4.976 27.0327 5.296 26.8407C5.424 26.6487 5.584 26.4887 5.776 26.3607C5.968 26.1687 6.16 26.0087 6.352 25.8807C6.48 25.8167 6.64 25.7847 6.832 25.7847C7.024 25.8487 7.28 25.8167 7.6 25.6887L7.888 25.4967C8.464 25.1767 9.04 25.1767 9.616 25.4967C9.936 25.6247 10.256 25.7527 10.576 25.8807C10.96 26.0087 11.28 26.2327 11.536 26.5527C11.92 26.6167 12.176 26.9047 12.304 27.4167L13.168 29.3367C13.68 30.4247 14.128 31.5447 14.512 32.6967C14.896 33.8487 15.152 35.0648 15.28 36.3448C15.344 36.7928 15.408 37.2728 15.472 37.7848C15.6 38.2328 15.696 38.7127 15.76 39.2248V39.9928C15.76 40.3128 15.792 40.5367 15.856 40.6647C15.92 41.1127 15.952 41.5928 15.952 42.1048C16.016 42.6168 16.048 43.1287 16.048 43.6408V43.8328C16.112 44.1528 16.304 44.3768 16.624 44.5048C16.816 44.5688 17.008 44.6328 17.2 44.6968C17.392 44.6968 17.584 44.6968 17.776 44.6968C18.096 44.6328 18.352 44.6328 18.544 44.6968C18.8 44.6968 19.056 44.6968 19.312 44.6968C19.76 44.6968 20.176 44.6968 20.56 44.6968C20.944 44.6328 21.36 44.6007 21.808 44.6007H22.96C23.152 44.6007 23.344 44.6328 23.536 44.6968C23.792 44.6968 24.016 44.6647 24.208 44.6007C24.336 44.6007 24.432 44.6007 24.496 44.6007C24.624 44.5368 24.72 44.5048 24.784 44.5048C25.424 44.5688 26.064 44.6007 26.704 44.6007C27.344 44.5368 27.984 44.5048 28.624 44.5048C29.264 44.5688 29.904 44.6007 30.544 44.6007C31.184 44.5368 31.824 44.5048 32.464 44.5048C32.976 44.5048 33.456 44.5368 33.904 44.6007C34.416 44.6007 34.896 44.6007 35.344 44.6007C35.792 44.6007 36.016 44.4088 36.016 44.0247C36.016 43.7048 36.016 43.3528 36.016 42.9688C36.016 42.5848 35.984 42.2327 35.92 41.9128C35.856 41.2087 35.792 40.5688 35.728 39.9928C35.728 39.3528 35.696 38.7128 35.632 38.0728C35.568 37.1768 35.536 36.3127 35.536 35.4807C35.6 34.5847 35.568 33.7207 35.44 32.8887C35.376 32.1847 35.312 31.4807 35.248 30.7767C35.248 30.0727 35.184 29.4007 35.056 28.7607V27.4167C35.056 27.1607 35.088 26.9687 35.152 26.8407C35.152 26.7127 35.152 26.6167 35.152 26.5527C35.216 26.4247 35.248 26.3287 35.248 26.2647C35.248 25.9447 35.184 25.7527 35.056 25.6887L34.768 25.4967C34.384 25.2407 34.32 24.9527 34.576 24.6327C34.768 24.3767 34.8 24.0887 34.672 23.7687C34.672 23.5767 34.704 23.4487 34.768 23.3847C34.896 23.1927 35.024 23.0007 35.152 22.8087C35.28 22.6167 35.376 22.3927 35.44 22.1367C35.632 21.4327 35.92 21.1127 36.304 21.1767C36.752 21.1767 37.04 21.2407 37.168 21.3687C37.232 21.4327 37.296 21.4647 37.36 21.4647C37.424 21.4007 37.456 21.3367 37.456 21.2727C37.456 20.8887 37.648 20.6647 38.032 20.6007C38.416 20.5367 38.704 20.4727 38.896 20.4087L39.472 20.0247H39.76C40.08 20.1527 40.336 20.3127 40.528 20.5047C40.784 20.6327 41.04 20.7607 41.296 20.8887C41.424 20.9527 41.584 21.0807 41.776 21.2727C42.224 21.8487 42.544 22.5847 42.736 23.4807C42.864 24.1207 42.992 24.7287 43.12 25.3047C43.248 25.8807 43.344 26.4887 43.408 27.1287C43.408 27.2567 43.408 27.3847 43.408 27.5127C43.472 27.6407 43.504 27.7687 43.504 27.8967L43.6 28.5687C43.6 29.3367 43.632 30.1047 43.696 30.8727C43.824 31.5767 43.92 32.3127 43.984 33.0807C44.048 33.1447 44.08 33.2727 44.08 33.4647C44.016 33.9127 43.984 34.3607 43.984 34.8087C44.048 35.1927 44.112 35.6408 44.176 36.1528C44.24 36.6008 44.272 37.1128 44.272 37.6888C44.336 38.2008 44.368 38.7127 44.368 39.2248C44.368 39.5448 44.368 39.8968 44.368 40.2808C44.432 40.6648 44.496 41.0168 44.56 41.3368C44.624 41.6567 44.656 41.9768 44.656 42.2968C44.656 42.6168 44.656 42.9368 44.656 43.2568C44.656 43.5768 44.656 43.8968 44.656 44.2168C44.72 44.4728 44.784 44.7607 44.848 45.0807V45.4648C44.912 46.2328 44.976 47.0007 45.04 47.7687C45.168 48.4727 45.264 49.2087 45.328 49.9767C45.392 50.0408 45.424 50.1688 45.424 50.3608C45.424 51.0648 45.488 51.8008 45.616 52.5688C45.744 53.2728 45.84 53.9768 45.904 54.6808L46.192 58.0408C46.192 58.1048 46.192 58.2328 46.192 58.4248C46.256 58.5528 46.288 58.6808 46.288 58.8088C46.352 58.9368 46.384 59.1928 46.384 59.5768C46.384 60.1528 46.416 60.7288 46.48 61.3048C46.608 61.8808 46.704 62.4568 46.768 63.0328C46.896 63.6728 46.992 64.3128 47.056 64.9528C47.12 65.5928 47.216 66.2648 47.344 66.9688C47.472 67.7368 47.632 68.5047 47.824 69.2727C48.016 70.0407 48.176 70.8087 48.304 71.5767C48.368 71.8327 48.4 72.1207 48.4 72.4407C48.464 72.6967 48.496 72.9847 48.496 73.3047C48.496 73.6247 48.4 73.9447 48.208 74.2647C48.144 74.3287 48.08 74.4567 48.016 74.6487C48.016 74.7767 47.952 74.9047 47.824 75.0327C47.76 75.0967 47.728 75.1607 47.728 75.2247C47.728 75.2887 47.696 75.3207 47.632 75.3207C47.376 75.3847 47.152 75.5447 46.96 75.8007C46.768 76.0567 46.544 76.2487 46.288 76.3767C46.032 76.6327 45.68 76.8247 45.232 76.9527L44.464 77.2407ZM69.559 75.6087C69.175 75.6087 68.919 75.5767 68.791 75.5127C68.471 75.3847 68.151 75.3207 67.831 75.3207C67.575 75.3847 67.287 75.4167 66.967 75.4167C66.903 75.4167 66.839 75.4167 66.775 75.4167C66.711 75.4807 66.647 75.5127 66.583 75.5127C66.135 75.5767 65.687 75.6087 65.239 75.6087C64.855 75.6087 64.471 75.5447 64.087 75.4167C64.023 75.3527 63.959 75.3207 63.895 75.3207C63.447 75.3847 63.063 75.2567 62.743 74.9367C62.423 74.6167 62.103 74.3287 61.783 74.0727C61.463 73.7527 61.303 73.4007 61.303 73.0167L61.015 72.2487C60.823 71.8007 60.759 71.3847 60.823 71.0007C60.887 70.8727 60.887 70.7447 60.823 70.6167C60.823 70.4887 60.823 70.3607 60.823 70.2327C60.759 70.1047 60.727 69.9767 60.727 69.8487C60.727 69.6567 60.695 69.4967 60.631 69.3687C60.503 68.7927 60.407 68.2168 60.343 67.6408C60.343 67.0008 60.375 66.3928 60.439 65.8168C60.503 65.4328 60.727 64.7928 61.111 63.8968C61.495 62.9368 61.719 62.3608 61.783 62.1688C61.975 61.8488 62.071 61.5928 62.071 61.4008C62.007 60.6968 61.975 59.9928 61.975 59.2888C62.039 58.5208 62.071 57.7848 62.071 57.0808C62.071 56.6328 62.167 56.2808 62.359 56.0247C62.615 55.5767 62.647 55.0968 62.455 54.5848L62.167 53.5288C61.783 52.8248 61.815 52.2168 62.263 51.7048C62.263 51.6407 62.263 51.6087 62.263 51.6087C62.327 51.5447 62.359 51.4808 62.359 51.4168C62.487 51.2888 62.519 51.1288 62.455 50.9368C62.391 50.6808 62.359 50.4888 62.359 50.3608C62.359 50.1048 62.391 49.8488 62.455 49.5928C62.583 49.2728 62.615 48.9848 62.551 48.7288C62.551 48.7288 62.487 48.6648 62.359 48.5368C62.295 48.4088 62.263 48.1528 62.263 47.7687C62.327 47.3848 62.359 47.1608 62.359 47.0968V44.4088C62.423 44.0888 62.455 43.8008 62.455 43.5448C62.455 43.2248 62.487 42.9048 62.551 42.5848C62.615 42.2008 62.615 41.8167 62.551 41.4328C62.551 40.9848 62.551 40.5368 62.551 40.0888C62.487 39.7688 62.423 39.4168 62.359 39.0328C62.359 38.6488 62.359 38.2648 62.359 37.8808C62.295 37.7528 62.263 37.5928 62.263 37.4007C62.263 37.2087 62.263 37.0487 62.263 36.9207C62.199 36.6007 62.135 36.2808 62.071 35.9608C62.071 35.6408 62.071 35.3207 62.071 35.0007C62.071 34.8727 61.943 34.4567 61.687 33.7527C61.431 32.9847 61.335 32.3447 61.399 31.8327C61.463 31.7047 61.495 31.5447 61.495 31.3527C61.495 31.1607 61.431 31.0007 61.303 30.8727C61.175 30.8087 61.111 30.6807 61.111 30.4887V30.2007C61.303 29.4327 61.207 28.6647 60.823 27.8967C60.567 27.5127 60.471 27.1287 60.535 26.7447C60.535 26.2327 60.311 25.8487 59.863 25.5927C59.543 25.2727 59.255 24.8887 58.999 24.4407C58.743 23.9927 58.583 23.5447 58.519 23.0967C58.455 22.7767 58.423 22.4567 58.423 22.1367C58.423 21.8167 58.423 21.5287 58.423 21.2727C58.423 21.0167 58.455 20.8567 58.519 20.7927C58.775 20.5367 58.903 20.2487 58.903 19.9287C58.903 19.5447 58.935 19.2567 58.999 19.0647C59.063 19.0007 59.127 18.9687 59.191 18.9687C59.255 18.9687 59.319 18.9367 59.383 18.8727C59.639 18.8087 59.767 18.5847 59.767 18.2007C59.639 17.9447 59.575 17.7207 59.575 17.5287C59.511 17.2727 59.607 17.0487 59.863 16.8567C59.991 16.6007 60.151 16.5367 60.343 16.6647C60.791 16.8567 61.303 16.7927 61.879 16.4727C62.135 16.3447 62.295 16.2807 62.359 16.2807C62.551 16.2807 62.647 16.2807 62.647 16.2807C62.711 16.2167 62.903 16.1847 63.223 16.1847C63.607 16.2487 63.959 16.1207 64.279 15.8007C64.727 15.3527 65.271 15.1287 65.911 15.1287H71.863C73.335 15.1927 74.807 15.1927 76.279 15.1287C77.751 15.0647 79.191 15.0327 80.599 15.0327C80.919 15.0327 81.175 15.0327 81.367 15.0327C81.623 14.9687 81.879 14.9047 82.135 14.8407C82.519 14.6487 82.967 14.5527 83.479 14.5527H85.687C86.199 14.5527 86.647 14.5527 87.031 14.5527C87.479 14.4887 87.927 14.4247 88.375 14.3607C88.631 14.2967 88.855 14.2647 89.047 14.2647C89.303 14.2647 89.559 14.2647 89.815 14.2647C90.071 14.2647 90.327 14.2647 90.583 14.2647C90.839 14.2647 91.095 14.2327 91.351 14.1687C91.863 14.1047 92.407 14.0727 92.983 14.0727C93.559 14.0087 94.103 13.9767 94.615 13.9767C94.871 13.9767 95.095 13.9767 95.287 13.9767C95.543 13.9127 95.799 13.8487 96.055 13.7847C96.567 13.6567 97.047 13.5927 97.495 13.5927C98.007 13.5287 98.487 13.4647 98.935 13.4007C99.447 13.3367 99.927 13.2727 100.375 13.2087C100.887 13.1447 101.367 13.0807 101.815 13.0167C102.391 13.0167 102.807 13.0807 103.063 13.2087C103.447 13.4647 103.799 13.6887 104.119 13.8807C104.503 14.0727 104.855 14.3287 105.175 14.6487C105.431 14.9047 105.591 15.1287 105.655 15.3207C105.719 15.5767 105.783 15.8327 105.847 16.0887C105.911 16.3447 105.975 16.6327 106.039 16.9527V17.6247C105.975 17.9447 105.911 18.2967 105.847 18.6807C105.847 19.0007 105.815 19.3527 105.751 19.7367C105.623 19.9927 105.463 20.2167 105.271 20.4087L103.543 22.1367C102.903 22.3287 102.263 22.4567 101.623 22.5207C101.047 22.5847 100.439 22.5847 99.799 22.5207H99.127C98.807 22.5847 98.487 22.6167 98.167 22.6167C97.847 22.6167 97.527 22.5847 97.207 22.5207C96.823 22.4567 96.439 22.4567 96.055 22.5207C95.671 22.5207 95.287 22.5207 94.903 22.5207C94.647 22.5207 94.391 22.5527 94.135 22.6167C93.943 22.6167 93.719 22.5847 93.463 22.5207C93.143 22.4567 92.823 22.4567 92.503 22.5207C92.247 22.5207 91.959 22.5527 91.639 22.6167C91.383 22.6167 91.095 22.6487 90.775 22.7127C90.519 22.7127 90.231 22.7127 89.911 22.7127C89.079 22.8407 88.183 22.9047 87.223 22.9047C86.327 22.9047 85.431 22.9687 84.535 23.0967C83.959 23.0327 83.415 23.0647 82.903 23.1927C82.391 23.2567 81.847 23.3207 81.271 23.3847C80.759 23.4487 80.215 23.4807 79.639 23.4807C79.063 23.4807 78.519 23.5447 78.007 23.6727C77.367 23.6727 76.727 23.7687 76.087 23.9607C75.511 24.0887 74.903 24.1847 74.263 24.2487L73.591 24.3447C73.143 24.3447 72.727 24.4087 72.343 24.5367C71.959 24.6007 71.543 24.6967 71.095 24.8247C70.839 24.8887 70.583 24.9527 70.327 25.0167C70.071 25.0167 69.783 25.0487 69.463 25.1127C69.271 25.1127 69.047 25.1767 68.791 25.3047C68.599 25.3687 68.503 25.5607 68.503 25.8807L68.791 26.7447C68.855 26.8727 68.823 27.1927 68.695 27.7047C68.631 28.2167 68.567 28.6007 68.503 28.8567C68.503 29.0487 68.535 29.2407 68.599 29.4327C68.663 29.6247 68.727 29.8167 68.791 30.0087C68.983 30.5207 69.079 31.0967 69.079 31.7367C69.079 32.3127 69.143 32.8567 69.271 33.3687C69.335 33.6247 69.367 33.9127 69.367 34.2327C69.367 34.4887 69.399 34.7767 69.463 35.0967C69.463 35.2247 69.463 35.3847 69.463 35.5767C69.527 35.7047 69.559 35.8648 69.559 36.0568C69.559 36.2488 69.527 36.3768 69.463 36.4408C69.271 36.6968 69.175 36.9848 69.175 37.3048C69.175 37.6248 69.175 37.9448 69.175 38.2648C69.495 38.9048 69.655 39.5448 69.655 40.1847C69.655 40.8247 69.655 41.4648 69.655 42.1048C69.655 42.2968 69.815 42.3608 70.135 42.2968H70.231C70.359 42.0408 70.487 41.8488 70.615 41.7208C70.807 41.7208 71.031 41.6568 71.287 41.5288C71.479 41.4008 71.735 41.3368 72.055 41.3368C72.567 41.4008 73.047 41.4008 73.495 41.3368C73.943 41.2087 74.391 41.0807 74.839 40.9528C77.847 40.1847 80.663 39.1927 83.287 37.9767C83.991 37.6567 84.727 37.4008 85.495 37.2088C86.263 36.9528 87.031 36.7927 87.799 36.7287H88.087C88.663 36.6647 89.239 36.6007 89.815 36.5368C90.391 36.4727 90.967 36.4408 91.543 36.4408C92.311 36.3768 93.047 36.2808 93.751 36.1528C94.519 36.0248 95.287 35.9287 96.055 35.8647C96.503 35.7367 96.919 35.6407 97.303 35.5767C97.687 35.4487 98.103 35.2887 98.551 35.0967C99.383 34.7767 100.151 34.6167 100.855 34.6167C101.367 34.6807 101.847 34.8087 102.295 35.0007C102.743 35.1287 103.191 35.3207 103.639 35.5767C104.599 36.2167 105.079 37.1768 105.079 38.4567C105.079 38.9688 105.015 39.4808 104.887 39.9928C104.823 40.5048 104.791 41.0168 104.791 41.5288C104.791 41.6568 104.727 41.7847 104.599 41.9128L104.311 42.3927C104.247 42.6488 104.183 42.9048 104.119 43.1608C104.055 43.4168 103.895 43.6088 103.639 43.7368C103.255 44.0568 102.839 44.4088 102.391 44.7928C102.007 45.1128 101.559 45.3368 101.047 45.4648C100.791 45.5288 100.535 45.5928 100.279 45.6568C100.087 45.7208 99.863 45.7528 99.607 45.7528C98.583 45.7528 97.527 45.8168 96.439 45.9448C95.415 46.0728 94.359 46.2008 93.271 46.3288C92.439 46.3927 91.607 46.4888 90.775 46.6168C90.007 46.7448 89.207 46.8088 88.375 46.8088C87.607 46.8088 86.743 46.9688 85.783 47.2887C85.143 47.4167 84.471 47.5448 83.767 47.6728C83.063 47.8008 82.359 47.8968 81.655 47.9608C81.143 48.0248 80.599 48.1208 80.023 48.2487C79.511 48.3127 78.999 48.3768 78.487 48.4408L76.855 48.7288C76.727 48.7928 76.535 48.8248 76.279 48.8248C75.831 48.9528 75.383 49.0488 74.935 49.1128C74.487 49.1768 74.039 49.2728 73.591 49.4008C73.143 49.4648 72.695 49.5608 72.247 49.6888C71.863 49.8168 71.447 49.9448 70.999 50.0728C70.679 50.1368 70.423 50.2647 70.231 50.4567C70.039 50.5847 69.879 50.7768 69.751 51.0328C69.687 51.2248 69.687 51.4167 69.751 51.6087C69.815 51.8647 69.783 52.1208 69.655 52.3768C69.719 53.0168 69.751 53.6568 69.751 54.2968C69.815 54.9368 69.815 55.5768 69.751 56.2168C69.879 56.7288 69.911 57.2408 69.847 57.7528C69.847 58.2648 69.815 58.7768 69.751 59.2888C69.623 60.0568 69.655 60.6968 69.847 61.2088C70.039 62.0408 69.975 62.9048 69.655 63.8008C69.527 64.1848 69.527 64.4408 69.655 64.5688C69.783 64.7608 69.783 64.9848 69.655 65.2408V65.8168C69.591 66.3288 69.815 66.5848 70.327 66.5848H70.519C70.967 66.5848 71.415 66.7448 71.863 67.0648C72.183 67.3848 72.567 67.4808 73.015 67.3528L75.703 67.0648C76.087 67.0008 76.471 66.9688 76.855 66.9688C77.239 66.9048 77.623 66.8728 78.007 66.8728C78.135 66.8088 78.327 66.8408 78.583 66.9688C78.903 67.1608 79.191 67.1928 79.447 67.0648C79.575 66.9368 79.735 66.8408 79.927 66.7768C80.183 66.7128 80.375 66.6168 80.503 66.4888C80.887 66.1048 81.367 65.9768 81.943 66.1048C82.455 66.2328 82.871 66.2008 83.191 66.0088C83.767 65.8168 84.311 65.7528 84.823 65.8168C85.143 65.8808 85.463 65.8488 85.783 65.7208C86.103 65.5928 86.423 65.5288 86.743 65.5288C86.871 65.5288 86.967 65.5608 87.031 65.6248C87.095 65.6248 87.159 65.5928 87.223 65.5288C87.351 65.5288 87.479 65.4968 87.607 65.4328C87.735 65.3688 87.831 65.3368 87.895 65.3368C88.343 65.1448 88.759 65.0808 89.143 65.1448C89.463 65.1448 89.623 65.1448 89.623 65.1448C89.879 65.0808 90.103 65.0808 90.295 65.1448C90.551 65.2088 90.775 65.3048 90.967 65.4328C91.287 65.4968 91.543 65.5928 91.735 65.7208C91.991 65.8488 92.247 65.9448 92.503 66.0088C92.631 66.0088 92.727 66.0408 92.791 66.1048C93.111 66.3608 93.495 66.5848 93.943 66.7768C94.455 66.9688 94.743 67.1928 94.807 67.4488C94.935 67.8328 94.999 68.2167 94.999 68.6007C94.999 68.9207 95.031 69.2727 95.095 69.6567C95.095 69.8487 95.063 70.0407 94.999 70.2327C94.999 70.4247 94.967 70.6167 94.903 70.8087C94.775 71.0647 94.615 71.3527 94.423 71.6727C94.295 71.9927 94.103 72.2807 93.847 72.5367C93.719 72.6647 93.591 72.7927 93.463 72.9207C93.399 73.0487 93.303 73.1767 93.175 73.3047C92.919 73.5607 92.631 73.7847 92.311 73.9767C91.991 74.1687 91.639 74.2647 91.255 74.2647C90.999 74.2647 90.807 74.2967 90.679 74.3607C90.423 74.4887 90.167 74.5527 89.911 74.5527C89.655 74.5527 89.367 74.5527 89.047 74.5527C88.599 74.6167 88.151 74.6807 87.703 74.7447C87.319 74.7447 86.903 74.7127 86.455 74.6487C86.199 74.5847 85.975 74.5847 85.783 74.6487C85.143 74.8407 84.503 74.8727 83.863 74.7447C83.223 74.7447 82.583 74.7767 81.943 74.8407C81.367 74.8407 80.791 74.8407 80.215 74.8407H78.967C78.775 74.8407 78.615 74.8727 78.487 74.9367C78.231 75.0647 77.911 75.1287 77.527 75.1287C77.207 75.1287 76.887 75.0967 76.567 75.0327H75.607C75.543 75.0327 75.447 75.0327 75.319 75.0327C75.191 75.0967 75.063 75.0967 74.935 75.0327C74.743 74.9687 74.551 74.9367 74.359 74.9367C74.231 75.0007 74.071 75.0647 73.879 75.1287C73.751 75.1287 73.623 75.1287 73.495 75.1287C73.431 75.1927 73.335 75.2247 73.207 75.2247C72.567 75.1607 71.959 75.1607 71.383 75.2247C70.807 75.3527 70.199 75.4807 69.559 75.6087ZM122.063 75.2247C121.551 75.4167 120.975 75.3527 120.335 75.0327L118.415 74.1687C118.095 74.0407 117.839 73.7527 117.647 73.3047L117.359 72.7287C117.231 72.4087 117.071 72.1847 116.879 72.0567C116.559 71.8007 116.335 71.3527 116.207 70.7127C116.079 70.0727 115.983 69.4327 115.919 68.7927C115.855 68.1527 115.791 67.5128 115.727 66.8728C115.663 66.3608 115.631 65.8488 115.631 65.3368C115.631 64.8248 115.631 64.3448 115.631 63.8968L115.727 63.2248C115.855 62.9048 115.919 62.5848 115.919 62.2648C115.919 61.9448 115.919 61.6568 115.919 61.4008V43.9288C116.047 43.0328 116.111 42.1368 116.111 41.2408C116.111 40.2808 116.111 39.3527 116.111 38.4567C116.175 37.5607 116.207 36.6967 116.207 35.8647C116.207 34.9687 116.143 34.1047 116.015 33.2727C115.951 32.9527 115.919 32.6007 115.919 32.2167C115.919 31.8327 115.919 31.4487 115.919 31.0647C115.919 30.4887 115.919 29.9127 115.919 29.3367C115.919 28.7607 115.855 28.1847 115.727 27.6087V27.3207C115.727 26.4247 115.663 25.5607 115.535 24.7287C115.471 23.8327 115.407 22.9687 115.343 22.1367C115.279 21.6247 115.215 21.1447 115.151 20.6967C115.087 20.2487 114.991 19.8007 114.863 19.3527C114.799 19.0967 114.767 18.8407 114.767 18.5847C114.767 18.3287 114.767 18.0727 114.767 17.8167C114.767 17.3687 114.831 16.9527 114.959 16.5687C115.087 16.1207 115.215 15.7047 115.343 15.3207C115.407 15.1927 115.567 15.0007 115.823 14.7447C115.951 14.6167 116.079 14.5207 116.207 14.4567C116.335 14.3927 116.431 14.3287 116.495 14.2647C116.879 13.7527 117.391 13.5287 118.031 13.5927C118.159 13.6567 118.351 13.6247 118.607 13.4967C118.927 13.2407 119.215 13.2087 119.471 13.4007C119.663 13.5287 119.983 13.5287 120.431 13.4007C120.623 13.4007 120.783 13.4647 120.911 13.5927C121.103 13.8487 121.359 14.0407 121.679 14.1687C121.999 14.2967 122.223 14.4887 122.351 14.7447C122.543 14.9367 122.735 15.1287 122.927 15.3207C123.055 15.5127 123.183 15.7047 123.311 15.8967C123.503 16.0247 123.599 16.2167 123.599 16.4727C123.663 16.7287 123.663 16.9847 123.599 17.2407C123.599 17.4327 123.599 17.6567 123.599 17.9127C123.599 18.4887 123.631 19.0967 123.695 19.7367C123.823 20.3127 123.919 20.8887 123.983 21.4647C124.111 22.1047 124.207 22.7767 124.271 23.4807C124.335 24.1207 124.399 24.7927 124.463 25.4967V26.4567C124.591 26.9047 124.655 27.3527 124.655 27.8007C124.655 28.2487 124.687 28.6967 124.751 29.1447V29.2407C124.815 30.0087 124.879 30.7767 124.943 31.5447C125.007 32.3127 125.071 33.0807 125.135 33.8487C125.199 34.1687 125.231 34.5207 125.231 34.9047C125.231 35.2247 125.231 35.5447 125.231 35.8647V61.4008C125.231 61.9768 125.263 62.5528 125.327 63.1288C125.455 63.7048 125.551 64.2488 125.615 64.7608C125.615 65.0808 125.807 65.2408 126.191 65.2408C126.767 65.3688 127.311 65.3688 127.823 65.2408C128.527 65.1128 129.199 65.0488 129.839 65.0488C130.543 65.0488 131.247 65.0488 131.951 65.0488C132.655 65.0488 133.327 65.0488 133.967 65.0488C134.671 64.9848 135.343 64.9208 135.983 64.8568H137.039C137.551 64.9208 137.999 64.9848 138.383 65.0488C138.831 65.0488 139.279 65.0488 139.727 65.0488C140.431 65.0488 141.135 65.0808 141.839 65.1448C142.607 65.1448 143.343 65.1768 144.047 65.2408C144.559 65.3048 145.071 65.3368 145.583 65.3368C146.159 65.3368 146.735 65.3368 147.311 65.3368H147.791C149.071 65.2728 150.223 65.5928 151.247 66.2968C151.695 66.4888 152.015 66.8088 152.207 67.2568C152.335 67.5128 152.431 67.7687 152.495 68.0247C152.623 68.2167 152.719 68.4727 152.783 68.7927C152.847 69.0487 152.879 69.3047 152.879 69.5607C152.943 69.7527 153.007 69.9767 153.071 70.2327C153.263 70.8087 153.199 71.4487 152.879 72.1527C152.815 72.3447 152.751 72.5367 152.687 72.7287C152.623 72.9207 152.527 73.1127 152.399 73.3047C152.271 73.4967 152.111 73.6567 151.919 73.7847C151.919 73.7847 151.791 73.8487 151.535 73.9767C151.023 74.4247 150.447 74.7127 149.807 74.8407C149.231 74.9687 148.591 75.0967 147.887 75.2247L146.927 75.1287C145.967 74.8087 145.007 74.6167 144.047 74.5527C143.791 74.4887 143.503 74.4567 143.183 74.4567C142.863 74.3927 142.543 74.3607 142.223 74.3607C141.775 74.3607 141.327 74.3607 140.879 74.3607C140.431 74.2967 139.951 74.2327 139.439 74.1687L138.479 74.0727C137.903 74.1367 137.327 74.1687 136.751 74.1687C136.175 74.1047 135.599 74.1047 135.023 74.1687C134.767 74.1687 134.511 74.1687 134.255 74.1687C133.999 74.1047 133.743 74.0727 133.487 74.0727C132.975 74.0727 132.463 74.0727 131.951 74.0727C131.503 74.0727 131.023 74.1367 130.511 74.2647C130.255 74.3287 129.935 74.3927 129.551 74.4567C129.231 74.4567 128.911 74.4567 128.591 74.4567C127.631 74.5207 126.671 74.6167 125.711 74.7447C124.751 74.8087 123.823 74.9367 122.927 75.1287C122.735 75.1927 122.447 75.2247 122.063 75.2247ZM227.652 76.8567C227.012 76.7927 226.372 76.6967 225.732 76.5687C225.156 76.5047 224.58 76.3447 224.004 76.0887L221.604 75.2247C220.772 74.9047 220.004 74.5527 219.3 74.1687C218.596 73.7207 217.892 73.2727 217.188 72.8247C216.868 72.5047 216.548 72.2167 216.228 71.9607C215.908 71.6407 215.588 71.3527 215.268 71.0967C214.756 70.5847 214.244 70.0727 213.732 69.5607C213.22 68.9847 212.74 68.3768 212.292 67.7368L209.988 64.1848C209.412 63.2888 208.9 62.3608 208.452 61.4008C208.004 60.3768 207.62 59.3528 207.3 58.3288C206.596 56.4088 206.244 54.5208 206.244 52.6648V51.1287C206.244 49.5288 206.34 47.9608 206.532 46.4248C206.66 45.1448 206.948 43.9928 207.396 42.9688C207.652 42.3288 207.876 41.6888 208.068 41.0488C208.26 40.4088 208.484 39.8008 208.74 39.2248L209.028 38.5528C209.156 37.7208 209.444 36.9848 209.892 36.3448C210.34 35.6408 210.724 34.9687 211.044 34.3287C211.3 33.8167 211.588 33.3687 211.908 32.9847C212.228 32.5367 212.516 32.0887 212.772 31.6407C212.9 31.4487 213.06 31.2887 213.252 31.1607C213.444 30.9687 213.604 30.7767 213.732 30.5847C213.86 30.4567 213.956 30.2967 214.02 30.1047C214.148 29.8487 214.244 29.6247 214.308 29.4327C214.436 29.2407 214.66 28.9847 214.98 28.6647C215.364 28.4727 215.716 28.0247 216.036 27.3207C216.164 27.0647 216.292 26.8727 216.42 26.7447C216.804 26.4247 217.124 26.0407 217.38 25.5927C217.7 25.1447 218.052 24.7287 218.436 24.3447C218.692 24.0887 218.82 23.7367 218.82 23.2887C218.82 22.9687 218.82 22.6807 218.82 22.4247C218.884 22.1047 218.884 21.8167 218.82 21.5607C218.756 21.2407 218.852 20.9527 219.108 20.6967C219.236 20.5687 219.332 20.4087 219.396 20.2167C219.46 20.0247 219.524 19.8327 219.588 19.6407C219.78 19.0007 220.292 18.4567 221.124 18.0087C221.252 17.8807 221.412 17.8167 221.604 17.8167C221.86 17.7527 222.084 17.6887 222.276 17.6247C222.724 17.4327 223.236 17.4007 223.812 17.5287C224.068 17.5927 224.292 17.6247 224.484 17.6247C224.676 17.5607 224.868 17.4967 225.06 17.4327C225.316 17.3047 225.54 17.2087 225.732 17.1447C225.988 17.0807 226.212 17.0167 226.404 16.9527C227.3 16.6327 228.228 16.6647 229.188 17.0487C230.212 17.4327 230.948 18.1047 231.396 19.0647C231.524 19.3847 231.652 19.7047 231.78 20.0247C231.908 20.3447 232.004 20.6647 232.068 20.9847C232.196 21.6887 232.164 22.2967 231.972 22.8087C231.844 23.0647 231.78 23.2247 231.78 23.2887C231.716 23.5447 231.78 23.7687 231.972 23.9607C232.1 24.1527 232.26 24.3127 232.452 24.4407C233.156 25.0807 233.828 25.7207 234.468 26.3607C235.108 26.9367 235.716 27.5767 236.292 28.2807C236.804 28.7927 237.22 29.3367 237.54 29.9127C237.924 30.4247 238.276 31.0007 238.596 31.6407C238.724 31.9607 238.884 32.3127 239.076 32.6967C239.268 33.0167 239.46 33.3367 239.652 33.6567C239.972 34.2327 240.228 34.8407 240.42 35.4807C240.676 36.1207 240.932 36.7607 241.188 37.4007V37.4967C241.316 37.9447 241.412 38.4247 241.476 38.9367C241.604 39.3847 241.796 39.8647 242.052 40.3768C242.244 40.8248 242.404 41.3048 242.532 41.8167C242.66 42.2647 242.788 42.7448 242.916 43.2568C243.044 43.8328 243.172 44.4088 243.3 44.9848C243.492 45.5608 243.62 46.1368 243.684 46.7128C243.748 46.9688 243.812 47.2248 243.876 47.4808C243.94 47.6728 244.004 47.8968 244.068 48.1528C244.196 48.7288 244.324 49.3048 244.452 49.8808C244.58 50.4568 244.676 51.0328 244.74 51.6087L245.028 52.2808C245.156 52.6648 245.284 53.1768 245.412 53.8167C245.604 54.6487 245.7 55.4808 245.7 56.3128C245.764 57.1448 245.764 58.0088 245.7 58.9048C245.7 59.3528 245.668 59.7048 245.604 59.9608C245.22 61.3048 244.74 62.6808 244.164 64.0888C243.908 64.5368 243.652 64.9848 243.396 65.4328C243.14 65.8168 242.884 66.2328 242.628 66.6808L241.764 68.0247C241.444 68.6007 241.092 69.1127 240.708 69.5607C240.068 70.5847 239.3 71.4807 238.404 72.2487C237.508 73.0167 236.548 73.7527 235.524 74.4567C233.284 76.1847 230.66 76.9847 227.652 76.8567ZM227.268 67.3528C228.612 67.3528 229.764 66.9688 230.724 66.2008C231.044 65.8808 231.364 65.5928 231.684 65.3368C232.068 65.0168 232.388 64.6968 232.644 64.3768C233.86 63.0328 234.82 61.6248 235.524 60.1528L235.812 59.1928C235.94 58.0408 235.94 56.8888 235.812 55.7368L235.236 52.5688C235.044 51.7368 234.884 50.9368 234.756 50.1688C234.628 49.3368 234.436 48.5367 234.18 47.7687C233.988 47.3207 233.924 46.9688 233.988 46.7128C234.052 46.3928 234.052 46.0728 233.988 45.7528C233.924 45.4328 233.828 45.1128 233.7 44.7928C233.508 43.9608 233.284 43.1288 233.028 42.2968C232.772 41.4648 232.516 40.6328 232.26 39.8008C232.196 39.6088 232.132 39.4167 232.068 39.2248C232.004 39.0327 231.94 38.8407 231.876 38.6488C231.428 37.7528 230.948 36.8888 230.436 36.0568C229.924 35.2248 229.348 34.4567 228.708 33.7527C228.388 33.3687 228.036 33.0167 227.652 32.6967C227.268 32.3127 226.884 31.9607 226.5 31.6407C226.436 31.5127 226.34 31.4487 226.212 31.4487C226.148 31.3847 226.052 31.3207 225.924 31.2567C225.732 31.0007 225.476 31.0327 225.156 31.3527C224.836 31.6727 224.484 32.0247 224.1 32.4087C223.78 32.7927 223.46 33.1767 223.14 33.5607C222.82 34.0087 222.468 34.4567 222.084 34.9047C221.764 35.3527 221.444 35.8007 221.124 36.2487C220.676 36.8247 220.26 37.4007 219.876 37.9767C219.492 38.5527 219.108 39.1287 218.724 39.7048C217.38 41.8808 216.324 44.2808 215.556 46.9048C215.428 47.2888 215.364 47.5767 215.364 47.7687C215.3 48.2167 215.236 48.6648 215.172 49.1128C215.172 49.5608 215.172 50.0408 215.172 50.5528V51.3208C215.236 51.5128 215.268 51.7048 215.268 51.8968C215.268 52.0888 215.3 52.2808 215.364 52.4728C215.364 53.2408 215.556 54.0728 215.94 54.9688C216.452 56.2488 217.028 57.4967 217.668 58.7127C218.308 59.9288 219.044 61.0808 219.876 62.1688C220.068 62.4248 220.26 62.6808 220.452 62.9368C220.708 63.1928 220.932 63.4488 221.124 63.7048C221.7 64.3447 222.308 64.9208 222.948 65.4328C223.652 65.9448 224.356 66.3928 225.06 66.7768C225.828 67.1608 226.564 67.3528 227.268 67.3528ZM563.684 36.9368C563.684 37.7861 563.208 38.1721 563.208 39.0214C563.208 40.1638 564.355 39.4917 565.112 39.8192C566.309 40.3369 566.505 39.0288 565.8 38.1464C565.226 37.4289 564.067 37.6817 563.684 36.9368ZM164.273 10.0306C164.323 8.66641 164.731 5.38051 165.958 5.38051C166.649 5.38051 169.011 6.55911 169.32 7.68335C169.602 8.71012 170.279 12.2682 170.279 13.4007C170.279 14.0375 167.708 23.2981 167.708 21.9367C167.708 20.3755 166.851 9.60973 166.083 8.61538C164.86 7.03309 164.419 8.26529 164.273 10.0306Z" stroke="black" stroke-width="3" stroke-linecap="round"/>
</g>
<defs>
<filter id="filter0_f_2_259" x="0.5" y="0.502808" width="576.208" height="80.2859" filterUnits="userSpaceOnUse" color-interpolation-filters="sRGB">
<feFlood flood-opacity="0" result="BackgroundImageFix"/>
<feBlend mode="normal" in="SourceGraphic" in2="BackgroundImageFix" result="shape"/>
<feGaussianBlur stdDeviation="1" result="effect1_foregroundBlur_2_259"/>
</filter>
</defs>
</svg>
