<svg width="369" height="41" viewBox="0 0 369 41" fill="none" xmlns="http://www.w3.org/2000/svg">
<path d="M2.50095 11.3087C2.50095 12.0449 2.95763 12.8303 3.28236 13.4436C3.59373 14.0318 3.58221 14.9836 3.98005 15.4809C4.40758 16.0153 4.25646 17.2052 4.5382 17.8391C4.89072 18.6323 4.65531 19.5684 4.98472 20.3508C5.27202 21.0331 4.99923 21.9532 5.2917 22.6113C5.45649 22.982 5.46042 23.4184 5.52194 23.8183C5.60109 24.3327 5.86315 24.8601 5.89171 25.3741C5.98129 26.9866 6.26846 28.5121 6.26846 30.1463M5.38937 21.6066C7.61828 21.6066 9.94199 21.7322 12.2337 21.7322C13.4228 21.7322 14.5549 21.6066 15.75 21.6066H17.4454C17.963 21.6066 18.4607 21.8577 18.9524 21.8577M17.8222 8.5459C17.8222 9.54307 18.3245 10.4137 18.3245 11.3715C18.3245 12.3747 18.7708 13.4389 18.8269 14.4483C18.896 15.693 19.2036 16.9565 19.2036 18.2159C19.2036 19.2747 19.5401 20.2796 19.5804 21.3276C19.6588 23.3665 20.2083 25.4682 20.2083 27.5091C20.2083 29.2752 21.5005 34.3633 20.7106 32.7836M50.5996 5.65744C49.5888 5.65744 48.3738 5.60014 47.46 6.00628C46.9662 6.22572 46.3133 6.0973 45.8274 6.31327C45.2121 6.58671 44.5632 6.40352 43.9367 6.59932C42.7472 6.97103 41.3145 6.45349 40.1203 6.79467C38.9179 7.13821 37.541 7.03886 36.2551 7.03886C35.0411 7.03886 33.9571 7.16445 32.7667 7.16445C32.2895 7.16445 31.5711 7.31906 31.1341 7.51329C31.0493 7.55096 30.5201 7.68532 30.5201 7.73655C30.5201 8.04839 31.0232 7.96769 31.1341 8.10632C31.4487 8.49964 31.3972 9.13361 31.5039 9.61333C31.6197 10.1345 31.5108 10.8017 31.5108 11.3366C31.5108 11.9102 31.479 12.4943 31.5108 13.0669C31.5463 13.7061 31.5353 14.5461 31.6434 15.1948C31.8182 16.2438 31.9034 17.2509 32.1318 18.2786C32.2413 18.7715 32.2522 19.2095 32.3829 19.667C32.5791 20.3536 33.0211 20.2252 33.6458 20.2252H34.4621C34.6927 20.2252 34.904 20.0016 35.1528 19.974C35.7241 19.9105 36 19.5 36.7854 19.3461C37.3714 19.281 37.9622 19.239 38.5 19C38.9565 18.8795 39.6151 18.7648 40.1203 18.6205C41.014 18.3652 44.8011 18.4369 45.8274 18.2089M32.0132 20.4763C32.0132 21.484 31.8876 22.5201 31.8876 23.4903C31.8876 24.5627 31.5108 25.5576 31.5108 26.6299C31.5108 27.655 31.3853 28.7157 31.3853 29.7695C31.3853 30.6965 31.1769 31.7382 31.762 32.4696C31.9465 32.7003 32.8466 32.658 33.1434 32.658H34.8388C35.9448 32.658 36.8888 32.2812 37.9784 32.2812C40.0425 32.2812 42.0532 32.1556 44.0692 32.1556M58.2602 5.53186C58.2602 6.54166 58.3858 7.52577 58.3858 8.48308C58.3858 9.75409 58.8392 11.0128 58.8881 12.2855C58.9435 13.7259 59.1393 15.1673 59.1393 16.5902C59.1393 18.466 59.6416 20.3459 59.6416 22.2345C59.6416 24.3561 59.7672 26.4958 59.7672 28.6393V31.7161C59.7672 32.2388 60.6628 32.0301 61.0789 32.0301H62.7812C64.0808 32.0301 65.1938 31.8417 66.5 31.8417C67.5675 31.8417 70.1617 31.7161 71.2292 31.7161M81.7915 5.31702C81.7915 6.11381 82.0951 6.84014 82.0951 7.59436C82.0951 8.23719 82.2192 9.0536 82.3903 9.65241C82.6117 10.4273 82.3988 11.5726 82.3988 12.3768V26.7578C82.3988 27.6215 82.5506 28.4814 82.5506 29.3051C82.5506 29.6806 82.5068 31.2134 82.7783 31.4306C82.9954 31.6042 82.7086 32.1633 83.1579 32.1897C83.5759 32.2143 83.8947 32.0379 84.2966 32.0379C85.0445 32.0379 85.766 31.7342 86.498 31.7342H91.5841C92.3898 31.7342 93.0649 32.0379 93.8614 32.0379C94.2387 32.0379 94.6235 32.0157 95.0001 32.0379C95.3368 32.0577 95.6568 32.3415 96.0629 32.3415M111.397 8.20166C111.397 8.54149 110.851 9.41169 110.604 9.68615C110.175 10.1625 110.004 10.7836 109.575 11.2381C108.782 12.0782 107.807 13.2491 107.264 14.2746C106.723 15.2963 106.125 16.3087 105.594 17.311C105.084 18.2742 104.109 19.773 104.109 20.8789C104.109 21.5523 103.958 22.1621 103.958 22.8526C103.958 23.5161 104.109 24.2072 104.109 24.8263C104.109 25.2447 104.547 26.3215 104.801 26.6482C105.181 27.1366 105.341 27.69 105.712 28.1664C106.208 28.8041 106.66 29.2749 107.222 29.8365C107.687 30.3012 108.273 30.5835 108.74 31.051C109.298 31.6088 109.786 32.1308 110.554 32.35C110.758 32.4085 111.029 32.6325 111.245 32.6452C111.57 32.6643 111.936 32.5599 112.19 32.7633C112.493 33.0058 113.733 32.797 114.13 32.797C114.872 32.797 115.393 32.743 115.766 32.0379C116.367 30.9038 117.659 30.1412 118.263 29.0014C118.51 28.5343 118.5 28.5 119.022 27.3651C119.5 26 119.329 26.0321 119.562 25.5095C120.074 24.3566 120.359 22.5063 120 21.5C119.588 18.6342 119 15.5 117.5 13C116.5 12 115.558 11.3016 114.5 10.5C114 9.68615 111.752 10.3759 111 10M159.482 6.59427C159.482 2.83283 156.091 2.98263 153.243 2.98263C150.959 2.98263 147.333 3.86801 147.333 6.59427C147.333 9.46044 146.476 11.7034 148.647 14.1459C149.353 14.9406 150.182 16.0451 151.091 16.7725L151.124 16.7988C152.038 17.5303 153.605 18.7838 154.228 19.5634C155.715 21.4223 158.482 22.1058 160.302 23.5216C161.866 24.7375 163 26.5 161.306 29.924C160.5 31 157.09 33.8876 156.527 34.3383C155.834 35.2041 153.292 35.1591 152.258 35.1591C150.439 35.1591 149.303 34.9476 149.303 32.8608M171.301 9.54934C171.301 12.0894 170.316 14.3417 170.316 16.9368V20.5484C170.316 21.8598 171.162 23.1384 171.301 24.3243C171.412 25.263 171.988 26.4438 172.359 27.2792C172.843 28.3673 173.928 29.6589 174.238 30.745C176 32.5 177.5 32.5 179.51 32.0401C181 31.5 181.5 31 182.5 30.5C183.5 30 183.75 28.5 184.5 27C185.5 25 185.97 22.2587 186.423 20.2201C186.405 18 186.405 16.1337 186.405 13.5C186.405 12.004 186.423 8.5 186.405 6.59436M196.911 7.90759V26.6225C196.911 27.5539 196.966 32.3958 196.583 32.2041M196.583 5.60938C196.583 6.47506 198.036 8.16456 198.626 8.81973C199.414 9.69567 200.036 11.0555 200.596 12.176C201.215 13.4146 201.77 14.7552 202.493 15.8606C203.282 17.0669 204 18.5 204.955 20.056C206.149 22 207.94 24.4815 209.06 26.4402C209.493 27.199 210.19 28.709 210.865 29.2492C211.135 29.4651 212.343 32.9269 212.343 31.2192M212.5 6.5V19.5C212.5 23.2604 213 27.0954 213 31M232.699 5.60935C230.042 5.60935 221.208 2.84146 221.208 8.07184C221.208 10.5671 222.967 12.5638 224.163 14.6567C224.783 15.7421 225.5 16.5 226.5 17.5C227.705 18.7051 228.25 19 229 19.5C230.5 20.5 233.008 23.8936 233.757 25.3092C234.994 27.645 235.351 29.0606 234.013 31.4016C232.711 33.6798 231.038 34.8309 228.267 34.8309C227.197 34.8309 226.026 34.2931 225 34C224 33.5 224.5 33.5 223.178 32.5325M242.631 11.6576C242.631 12.2941 243.148 12.743 243.419 13.2841C243.755 13.9568 243.831 14.699 244.116 15.3753C244.371 15.9822 244.49 17.044 244.49 17.6989C244.49 18.5806 244.839 19.4948 244.839 20.371C244.839 22.3015 245.545 24.2593 245.652 26.18C245.693 26.9251 245.846 27.657 245.884 28.3874C245.901 28.6931 246.001 28.9619 246.001 29.2587C246.001 29.4379 246.119 30.1247 246.233 29.7815M246.001 21.4167H253.23C254.289 21.4167 255.374 21.3005 256.399 21.3005C256.788 21.3005 259.274 21.4746 259.361 21.3005M258.316 8.75317C258.316 9.67785 258.294 10.5802 258.49 11.4834C258.608 12.027 258.896 12.6734 258.896 13.2261C258.896 13.7355 258.947 14.3177 259.038 14.8203C259.495 17.3332 260.058 19.8452 260.058 22.3978C260.058 23.369 260.291 24.341 260.291 25.341V27.5161C260.291 29.2193 260.523 30.8837 260.523 32.5699M270.282 7.59143C270.282 9.33537 270.398 11.0445 270.398 12.7743V17.1181C270.398 18.1878 270.631 19.2795 270.631 20.3453C270.631 21.5333 270.951 22.714 270.979 23.8952C271.01 25.1827 271.095 26.4768 271.095 27.755C271.095 28.8447 271.206 29.9603 271.437 31.0015C271.504 31.3018 271.56 31.7481 271.56 32.0471C271.56 32.2219 271.676 33.2206 271.676 32.8023M282.11 6.10608C282.11 15.0757 283.03 23.9985 283.03 32.9376M282.5 6C283 7 284.5 8.5 285.057 9.32585C285.849 10.5 286.762 11.71 287.613 12.8438C288.934 14.6061 290.394 16.8804 291.19 18.9511C291.586 19.9795 292.545 20.807 292.996 21.8217C293.801 23.6336 294.689 25.3537 295.568 27.1113C295.945 27.8647 296.153 28.6931 296.378 29.4793C296.567 30.1418 297.442 31.94 297.442 31.251M298 6.5V29.5C298 29.9096 297.5 31.8264 297.5 31M327.494 5.64612C325.251 5.64612 322.986 5.71466 320.781 5.79944C319.596 5.84503 318.532 6.25941 317.34 6.25941C316.285 6.25941 314.542 6.2826 313.618 6.79604C312.882 7.20488 311.232 7.33267 310.398 7.33267C309.925 7.33267 309.132 7.17548 308.711 7.40933C308.257 7.66167 308.84 8.21866 308.933 8.63591C309.463 11.0224 309.337 13.3888 309.248 15.8847C309.204 17.1064 309.095 18.2807 309.095 19.5133C309.095 20.9931 308.635 22.4325 308.635 23.8915V27.7246C308.635 29.0236 308.941 30.3724 308.941 31.6343C308.941 32.5413 311.495 32.171 312.085 32.171C313.118 32.171 314.233 32.0177 315.313 32.0177C316.479 32.0177 317.714 31.9142 318.831 32.1625C319.334 32.2743 319.839 32.3243 320.364 32.3243C320.616 32.3243 321.622 32.5002 321.361 32.6309M310.015 19.7519C310.796 19.7519 311.834 19.9183 312.553 19.5986C313.272 19.2791 314.046 18.9221 314.776 18.6786C315.425 18.4625 316.146 18.3727 316.761 18.0994C317.122 17.9389 318.057 17.8251 318.294 17.5287C318.537 17.2251 319.858 17.1454 320.211 17.1454C320.96 17.1454 321.672 16.9921 322.434 16.9921C322.998 16.9921 325.434 17.2782 325.654 16.8387M329.185 33.4464C329.248 33.9509 330.31 34.7847 330.563 35.3552C330.928 36.1762 331.093 37.0362 331.093 37.9799M347.868 10C346.981 10 345.832 10.2397 346.021 11.0977C346.169 11.7742 347.225 12.1991 348 11.9056M357.104 12C357.104 13.2025 356.444 15.077 358.45 15.077M340.63 19.1621C340.63 21.5354 343.185 24.1181 344.861 25.7008C345.477 26.2831 345.908 26.7938 346.677 27.1431C347.285 27.4195 347.929 27.6731 348.514 27.9658C350.123 28.7699 351.837 28.5855 353.611 28.5855C354.32 28.5855 356.603 28.9517 357.158 28.4893C357.487 28.2148 358.24 28.26 358.664 28.0085C359.167 27.7107 360.28 27.5809 360.63 27.1431C360.999 26.6819 366.576 23.7618 366.015 23.2007" stroke="black" stroke-width="5" stroke-linecap="round"/>
</svg>
